<svg width="195" height="151" viewBox="0 0 195 151" fill="none" xmlns="http://www.w3.org/2000/svg">
<g clip-path="url(#clip0_1_2696)">
<path d="M18.059 22.249C18.059 22.249 20.594 16.29 24.948 18.569C28.462 20.409 28.457 14.792 30.793 15.707C34.093 17.002 35.12 11.912 36.482 12.845C38.273 14.072 38.652 18.086 41.022 17.34C43.179 16.661 43.382 11.314 45.197 14.276C48.12 19.046 49.964 12.436 52.086 17.34C53.678 21.018 58.766 19.387 60.019 22.249H18.059Z" fill="#CD2222"/>
<path d="M131.97 47.347C131.97 47.347 134.505 41.388 138.859 43.667C142.373 45.507 142.368 39.89 144.704 40.805C148.004 42.105 149.031 37.005 150.393 37.943C152.184 39.17 152.563 43.184 154.933 42.438C157.09 41.759 157.293 36.412 159.108 39.374C162.031 44.144 163.874 37.534 165.997 42.438C167.589 46.116 172.677 44.485 173.93 47.347H131.97Z" fill="#CD2222"/>
<path d="M190.149 141.044C189.705 141.705 189.113 142.253 188.419 142.644H165.858C164.94 142.305 164.084 141.819 163.323 141.204C162.905 140.987 162.549 140.668 162.288 140.276C162.027 139.884 161.87 139.432 161.832 138.963C161.844 138.669 161.916 138.38 162.045 138.115C162.174 137.85 162.356 137.615 162.58 137.424C162.804 137.233 163.065 137.09 163.347 137.005C163.629 136.92 163.926 136.894 164.218 136.929C164.621 137.073 165.049 137.132 165.476 137.103C166.167 136.929 166.385 136.023 166.209 135.331C165.94 134.675 165.707 134.006 165.509 133.325C165.48 132.991 165.523 132.654 165.635 132.338C165.747 132.021 165.926 131.732 166.159 131.491C166.392 131.249 166.674 131.06 166.986 130.937C167.298 130.813 167.633 130.758 167.968 130.775C168.551 130.916 169.097 131.18 169.569 131.55C170.042 131.92 170.429 132.387 170.706 132.919C171.065 133.453 171.526 134.067 172.166 134.035C172.416 133.997 172.649 133.886 172.836 133.716C173.024 133.547 173.157 133.326 173.22 133.081C173.337 132.59 173.379 132.084 173.345 131.581C173.365 130.142 173.716 128.728 174.369 127.446C174.58 126.927 174.908 126.463 175.326 126.089C175.744 125.716 176.241 125.443 176.781 125.291C177.39 125.237 178 125.38 178.522 125.698C179.044 126.017 179.45 126.494 179.681 127.06C180.12 128.207 180.163 129.467 179.802 130.641C179.583 131.511 179.286 132.527 179.85 133.221C179.98 133.38 180.14 133.51 180.322 133.604C180.677 133.787 181.078 133.861 181.474 133.817C181.871 133.772 182.246 133.611 182.551 133.354C182.829 133.112 183.035 132.797 183.315 132.562C183.681 132.286 184.129 132.141 184.587 132.15C185.046 132.159 185.488 132.322 185.842 132.613C186.184 132.917 186.435 133.31 186.567 133.749C186.7 134.187 186.708 134.653 186.592 135.096C186.464 135.596 186.192 136.058 186.03 136.553C185.93 136.794 185.887 137.055 185.906 137.316C185.925 137.576 186.005 137.829 186.139 138.053C186.928 139.123 188.839 138.073 189.896 138.885C190.178 139.162 190.357 139.527 190.403 139.92C190.449 140.313 190.359 140.709 190.149 141.044Z" fill="#CD2222"/>
<path d="M177.357 127.054C177.796 128.201 177.839 129.461 177.479 130.635C177.26 131.505 176.963 132.521 177.527 133.214C177.657 133.373 177.817 133.503 177.999 133.597C178.327 133.766 178.696 133.842 179.064 133.816C179.432 133.79 179.786 133.664 180.088 133.451C179.997 133.382 179.914 133.303 179.842 133.214C179.278 132.52 179.576 131.504 179.794 130.635C180.154 129.461 180.111 128.201 179.672 127.054C179.441 126.488 179.035 126.011 178.513 125.692C177.991 125.374 177.381 125.231 176.772 125.285C176.496 125.333 176.23 125.429 175.987 125.569C176.592 125.903 177.073 126.424 177.357 127.054Z" fill="#CD2222"/>
<path d="M163.159 137.099C163.263 137.072 163.362 137.026 163.45 136.964C163.307 137 163.169 137.052 163.038 137.119C163.079 137.115 163.119 137.108 163.159 137.099Z" fill="#F0863C"/>
<path d="M168.39 132.915C168.748 133.449 169.21 134.063 169.85 134.032C170.086 133.998 170.307 133.898 170.488 133.743C170.669 133.588 170.803 133.385 170.873 133.158C170.816 133.078 170.76 132.997 170.705 132.915C170.427 132.384 170.039 131.918 169.567 131.548C169.095 131.178 168.55 130.913 167.967 130.771C167.499 130.729 167.03 130.845 166.636 131.101C167.347 131.57 167.946 132.189 168.39 132.915Z" fill="#CD2222"/>
<path d="M189.887 138.877C188.833 138.065 186.919 139.116 186.13 138.045C185.996 137.821 185.916 137.568 185.897 137.308C185.878 137.047 185.921 136.786 186.021 136.545C186.18 136.045 186.455 135.593 186.583 135.088C186.699 134.645 186.691 134.179 186.558 133.741C186.426 133.302 186.175 132.909 185.833 132.605C185.49 132.325 185.065 132.164 184.622 132.146C184.18 132.128 183.743 132.254 183.378 132.505C183.426 132.538 183.473 132.572 183.518 132.605C183.86 132.909 184.111 133.302 184.243 133.741C184.376 134.179 184.384 134.645 184.268 135.088C184.14 135.588 183.868 136.05 183.706 136.545C183.606 136.786 183.563 137.047 183.582 137.308C183.601 137.568 183.681 137.821 183.815 138.045C184.604 139.115 186.515 138.065 187.572 138.877C187.856 139.154 188.037 139.521 188.084 139.915C188.131 140.309 188.041 140.708 187.83 141.044C187.386 141.705 186.794 142.253 186.1 142.644H188.415C189.109 142.253 189.701 141.705 190.145 141.044C190.356 140.708 190.446 140.309 190.399 139.915C190.352 139.521 190.171 139.154 189.887 138.877Z" fill="#CD2222"/>
<path d="M179.226 133.802C179.183 134.096 179.08 134.377 178.922 134.629C178.765 134.88 178.556 135.096 178.31 135.262C177.781 135.617 177.041 135.75 176.71 136.347C176.702 136.362 176.69 136.374 176.674 136.38C176.518 137.018 176.362 137.656 176.227 138.295C175.887 139.718 175.776 141.187 175.898 142.645H175.737C175.692 142.239 175.671 141.831 175.676 141.423C175.688 140.735 175.75 140.05 175.862 139.371C175.845 139.372 175.829 139.366 175.816 139.355C175.803 139.344 175.795 139.329 175.793 139.312C175.699 138.968 175.504 138.659 175.234 138.426C174.946 138.126 174.657 137.834 174.368 137.538C173.79 137.058 173.42 136.373 173.337 135.626C173.339 135.606 173.349 135.587 173.364 135.574C173.379 135.56 173.398 135.553 173.419 135.553C173.439 135.553 173.458 135.56 173.473 135.574C173.488 135.587 173.498 135.606 173.5 135.626C173.607 136.391 174.008 137.085 174.618 137.559C174.896 137.845 175.182 138.126 175.455 138.419C175.652 138.614 175.805 138.848 175.907 139.105C176.173 137.571 176.615 136.062 176.938 134.539C177.158 133.557 177.287 132.558 177.326 131.553L177.306 131.541C177.036 131.345 176.813 131.092 176.651 130.8C176.49 130.508 176.396 130.184 176.374 129.851C176.382 129.751 176.545 129.751 176.537 129.851C176.551 130.141 176.63 130.425 176.766 130.681C176.903 130.937 177.095 131.16 177.328 131.334C177.36 130.167 177.137 129.007 176.675 127.934C176.632 127.84 176.775 127.756 176.817 127.852C177.05 128.375 177.221 128.923 177.327 129.486C177.616 129.138 177.807 128.719 177.881 128.273C177.899 128.173 178.055 128.214 178.039 128.316C177.952 128.83 177.718 129.308 177.365 129.692C177.459 130.26 177.501 130.836 177.493 131.412C177.426 132.965 177.183 134.504 176.768 136.002C177.162 135.677 177.602 135.412 178.074 135.216C178.341 135.066 178.57 134.856 178.744 134.604C178.917 134.351 179.03 134.061 179.074 133.758C179.086 133.65 179.246 133.695 179.226 133.802Z" fill="#FFCEAB"/>
<path d="M172.168 142.641H172.004C172.02 142.279 172.016 141.916 171.993 141.554C171.993 141.464 171.98 141.373 171.972 141.283C171.966 141.295 171.957 141.305 171.945 141.311C171.933 141.317 171.919 141.319 171.906 141.316C170.789 141.199 169.76 140.655 169.035 139.797C168.968 139.718 169.083 139.597 169.15 139.682C169.844 140.51 170.832 141.037 171.906 141.152C171.917 141.153 171.928 141.156 171.937 141.162C171.947 141.167 171.955 141.174 171.962 141.183C171.892 140.419 171.705 139.671 171.408 138.964C171.126 138.333 170.775 137.736 170.361 137.183C170.347 137.186 170.332 137.186 170.318 137.183C169.428 136.925 168.268 137.313 167.567 136.537C167.498 136.458 167.613 136.343 167.682 136.422C167.995 136.721 168.41 136.889 168.843 136.892C169.303 136.894 169.763 136.927 170.219 136.992C170.193 136.96 170.169 136.927 170.147 136.892C169.647 136.238 169.105 135.618 168.588 134.977C168.335 134.66 168.088 134.337 167.855 134.004C167.602 133.659 167.404 133.278 167.266 132.874C167.235 132.774 167.393 132.731 167.424 132.831C167.591 133.296 167.832 133.731 168.138 134.12C168.324 134.378 168.519 134.626 168.716 134.873C168.886 134.608 168.989 134.306 169.017 133.993C169.045 133.679 168.997 133.364 168.876 133.073C168.835 132.973 168.976 132.894 169.017 132.991C169.156 133.318 169.212 133.674 169.179 134.027C169.145 134.381 169.024 134.72 168.826 135.015C168.885 135.089 168.944 135.163 169.005 135.237C169.886 136.213 170.664 137.278 171.325 138.415C171.455 138.067 171.725 137.787 171.881 137.447C172.042 136.906 171.991 136.324 171.74 135.819C171.706 135.719 171.863 135.676 171.898 135.775C172.143 136.289 172.202 136.872 172.065 137.424C171.906 137.853 171.524 138.177 171.432 138.632C171.538 138.85 171.632 139.073 171.715 139.301C172.078 140.377 172.232 141.512 172.168 142.646V142.641Z" fill="#FFCEAB"/>
<path d="M168.27 142.64H168.102C168.011 142.181 167.823 141.747 167.551 141.366C167.497 141.292 167.436 141.225 167.375 141.156C167.361 141.159 167.345 141.159 167.331 141.156C167.031 141.085 166.76 141.322 166.491 141.417C166.219 141.508 165.922 141.488 165.664 141.363C165.564 141.319 165.653 141.177 165.746 141.223C165.878 141.284 166.023 141.313 166.168 141.309C166.314 141.305 166.456 141.268 166.585 141.2C166.778 141.084 166.994 141.01 167.218 140.983C166.983 140.75 166.726 140.54 166.45 140.358C165.998 140.058 165.511 139.804 165.036 139.539C164.796 139.41 164.562 139.268 164.336 139.115C164.152 139.009 164.018 138.835 163.963 138.63C163.941 138.53 164.099 138.484 164.119 138.587C164.176 138.863 164.464 139.011 164.685 139.144C164.963 139.312 165.249 139.466 165.533 139.622L165.599 139.658C165.647 139.324 165.611 138.984 165.492 138.668C165.456 138.568 165.614 138.527 165.65 138.624C165.776 138.972 165.811 139.347 165.75 139.712C165.747 139.722 165.743 139.731 165.737 139.739C166.599 140.141 167.337 140.767 167.873 141.552C168.065 141.89 168.199 142.258 168.27 142.64Z" fill="#FFCEAB"/>
<path d="M185.516 135.334C185.455 135.563 185.216 135.668 185.016 135.747C184.771 135.839 184.513 135.89 184.251 135.898H184.241C184.154 136.007 184.064 136.114 183.971 136.219C183.472 136.746 183.009 137.306 182.586 137.896C181.919 138.884 181.417 139.974 181.1 141.123C181.634 140.85 182.228 140.717 182.77 140.457C183.053 140.353 183.304 140.177 183.499 139.946C183.694 139.716 183.826 139.439 183.883 139.143C183.893 139.043 184.056 139.043 184.047 139.143C183.999 139.445 183.876 139.731 183.69 139.974C183.503 140.217 183.26 140.409 182.98 140.534C182.359 140.863 181.652 140.988 181.042 141.334C180.932 141.762 180.848 142.196 180.791 142.634H180.625C180.774 141.465 181.11 140.327 181.62 139.264C181.619 139.259 181.616 139.255 181.613 139.251C181.396 138.47 180.822 137.651 181.227 136.826C181.273 136.732 181.414 136.815 181.368 136.908C181.019 137.613 181.491 138.37 181.722 139.05C181.956 138.58 182.223 138.127 182.522 137.695C182.707 137.43 182.903 137.173 183.111 136.924C182.843 136.313 182.76 135.637 182.874 134.979C182.892 134.879 183.05 134.92 183.032 135.022C182.931 135.617 183 136.229 183.232 136.786C183.449 136.533 183.677 136.286 183.898 136.038C184.429 135.52 184.768 134.837 184.858 134.101C184.858 134.001 185.026 134.001 185.021 134.101C184.972 134.695 184.743 135.26 184.365 135.72C184.549 135.703 184.73 135.665 184.904 135.605C185.062 135.547 185.304 135.467 185.354 135.284C185.357 135.273 185.362 135.262 185.368 135.252C185.375 135.243 185.384 135.235 185.394 135.229C185.405 135.224 185.416 135.22 185.427 135.219C185.439 135.217 185.451 135.218 185.462 135.222C185.473 135.225 185.483 135.231 185.492 135.239C185.501 135.246 185.508 135.256 185.513 135.266C185.518 135.277 185.521 135.288 185.522 135.3C185.522 135.311 185.52 135.323 185.516 135.334Z" fill="#FFCEAB"/>
<path d="M188.766 140.462C188.373 140.498 187.987 140.589 187.62 140.733C187.612 140.743 187.601 140.751 187.589 140.757C187.577 140.762 187.564 140.764 187.551 140.763C187.479 140.792 187.407 140.822 187.335 140.854C187.018 141.006 186.719 141.195 186.447 141.418C186.951 141.459 187.442 141.594 187.895 141.818C187.989 141.866 187.906 142.006 187.813 141.959C187.346 141.729 186.838 141.597 186.318 141.571C186.305 141.57 186.292 141.566 186.28 141.56C185.937 141.867 185.648 142.228 185.422 142.629C185.422 142.634 185.42 142.639 185.416 142.642H185.233C185.308 142.496 185.391 142.355 185.483 142.219C185.733 141.855 186.036 141.531 186.383 141.257C186.717 140.994 187.085 140.778 187.478 140.616C187.487 140.258 187.555 139.905 187.678 139.569C187.714 139.469 187.872 139.515 187.836 139.613C187.725 139.915 187.661 140.232 187.645 140.553C188.006 140.42 188.383 140.335 188.766 140.3C188.866 140.296 188.866 140.453 188.766 140.462Z" fill="#FFCEAB"/>
<path d="M36.674 139.001C35.606 139.546 34.396 139.777 33.348 140.354C32.3 140.931 31.348 141.681 31.576 142.859H25.597L23.127 142.866H20.674C20.687 140.705 18.86 138.978 16.974 137.924C16.3406 137.669 15.8091 137.212 15.462 136.624C15.3644 136.205 15.3686 135.768 15.4742 135.35C15.5798 134.933 15.7838 134.547 16.069 134.224C16.6316 133.38 17.2472 132.572 17.912 131.806C18.0925 131.531 18.3346 131.302 18.6192 131.138C18.9038 130.973 19.2228 130.877 19.551 130.858C19.8222 130.919 20.0774 131.037 20.3 131.204C20.5226 131.371 20.7076 131.582 20.843 131.825C21.7484 133.094 22.3683 134.544 22.66 136.076C22.754 136.566 22.952 137.192 23.448 137.199C23.854 137.206 24.113 136.764 24.198 136.368C24.519 134.859 23.656 133.392 23.14 131.938C22.7992 130.912 22.5515 129.857 22.4 128.787C22.2587 128.189 22.24 127.568 22.345 126.963C22.715 125.425 24.461 124.682 26.018 124.409C27.4428 124.084 28.9313 124.176 30.305 124.675C30.9841 124.938 31.5724 125.392 31.9984 125.982C32.4245 126.572 32.6699 127.274 32.705 128.001C32.682 129.325 31.787 130.441 31.118 131.587C30.1536 133.234 29.6045 135.091 29.518 136.997C29.4903 137.218 29.525 137.443 29.618 137.646C29.923 138.195 30.786 137.993 31.234 137.555C31.8042 136.906 32.1948 136.12 32.367 135.274C32.541 134.43 32.8713 133.627 33.341 132.905C33.5841 132.55 33.9312 132.28 34.3345 132.13C34.7378 131.981 35.1775 131.96 35.593 132.071C35.9228 132.215 36.219 132.426 36.463 132.691C37.1295 133.352 37.6976 134.105 38.15 134.927C38.3887 135.322 38.5445 135.761 38.608 136.218C38.5881 136.819 38.3949 137.401 38.0518 137.895C37.7087 138.389 37.2302 138.773 36.674 139.001Z" fill="#CD2222"/>
<path d="M18.791 131.836C19.6964 133.105 20.3163 134.555 20.608 136.087C20.702 136.577 20.9 137.203 21.396 137.21C21.802 137.217 22.061 136.775 22.146 136.379C22.2555 135.066 21.9736 133.75 21.336 132.597C21.1827 132.336 21.0187 132.083 20.844 131.836C20.7086 131.593 20.5236 131.382 20.301 131.215C20.0784 131.048 19.8232 130.93 19.552 130.869C19.3348 130.862 19.1185 130.901 18.917 130.982C18.7154 131.063 18.5329 131.186 18.381 131.341C18.5309 131.496 18.6681 131.664 18.791 131.841V131.836Z" fill="#CD2222"/>
<path d="M28.254 124.688C28.9331 124.951 29.5214 125.405 29.9474 125.995C30.3735 126.585 30.6189 127.287 30.654 128.014C30.631 129.338 29.736 130.454 29.067 131.6C28.1026 133.247 27.5535 135.104 27.467 137.01C27.4393 137.231 27.474 137.456 27.567 137.659C27.867 138.208 28.735 138.006 29.183 137.568C29.3054 137.445 29.4168 137.311 29.516 137.168V137.006C29.6025 135.1 30.1516 133.243 31.116 131.596C31.784 130.45 32.68 129.334 32.703 128.01C32.6679 127.283 32.4225 126.581 31.9964 125.991C31.5704 125.401 30.9821 124.947 30.303 124.684C29.1928 124.258 27.9912 124.126 26.815 124.301C27.31 124.364 27.7941 124.494 28.254 124.688Z" fill="#CD2222"/>
<path d="M38.618 136.231C38.5548 135.774 38.3993 135.335 38.161 134.94C37.7093 134.118 37.1419 133.364 36.476 132.703C36.232 132.438 35.9358 132.227 35.606 132.083C35.3368 131.996 35.051 131.973 34.7713 132.016C34.4917 132.059 34.2259 132.166 33.995 132.33C34.1459 132.444 34.2886 132.568 34.422 132.702C35.0885 133.363 35.6566 134.116 36.109 134.938C36.3473 135.333 36.5028 135.772 36.566 136.229C36.5429 136.829 36.3473 137.41 36.0024 137.901C35.6576 138.393 35.1783 138.774 34.622 139C33.554 139.545 32.344 139.776 31.296 140.353C30.248 140.93 29.296 141.68 29.524 142.858H23.545L21.076 142.865H23.129L25.598 142.858H31.576C31.352 141.68 32.296 140.934 33.348 140.353C34.4 139.772 35.606 139.545 36.674 139C37.2298 138.774 37.7087 138.393 38.0533 137.902C38.3979 137.411 38.5946 136.831 38.618 136.231Z" fill="#CD2222"/>
<path d="M22.216 142.877H21.895C21.8676 142.384 21.8038 141.894 21.704 141.41C21.5858 140.843 21.4229 140.286 21.217 139.745C21.1894 139.751 21.1611 139.753 21.133 139.751C20.5972 139.657 20.097 139.419 19.686 139.063C19.659 139.032 19.6447 138.992 19.6459 138.951C19.6471 138.911 19.6638 138.872 19.6925 138.842C19.7213 138.813 19.76 138.796 19.8009 138.794C19.8418 138.793 19.8819 138.806 19.913 138.833C20.25 139.116 20.651 139.312 21.081 139.404C20.3761 137.715 19.2511 136.235 17.813 135.104C17.647 134.977 17.881 134.747 18.043 134.873C18.4464 135.191 18.827 135.537 19.182 135.908C19.2926 135.368 19.32 134.814 19.263 134.266C19.2633 134.223 19.2804 134.182 19.3107 134.152C19.3411 134.121 19.3821 134.104 19.425 134.104C19.4673 134.106 19.5074 134.124 19.5374 134.154C19.5674 134.184 19.5851 134.224 19.587 134.266C19.6548 134.915 19.6088 135.57 19.451 136.203L19.63 136.403C21.1649 138.227 22.0716 140.497 22.216 142.877Z" fill="#FFCEAB"/>
<path d="M28.377 135.708C27.7068 136.886 26.8127 137.923 25.745 138.758C25.687 140.186 25.7469 141.617 25.924 143.035H25.599C25.5323 142.529 25.4827 142.023 25.45 141.516C25.3931 140.613 25.3834 139.707 25.421 138.803C25.4056 138.773 25.3985 138.74 25.4002 138.706C25.402 138.673 25.4126 138.64 25.431 138.612C25.5186 136.684 25.8204 134.773 26.331 132.912C26.3015 132.899 26.2775 132.876 26.263 132.847C25.5477 131.49 25.0993 130.008 24.942 128.482C24.919 128.274 25.242 128.274 25.267 128.482C25.4106 129.88 25.8092 131.24 26.443 132.494C26.8171 131.207 27.2902 129.95 27.858 128.736C27.949 128.545 28.228 128.71 28.14 128.898C27.6176 130.011 27.1781 131.162 26.825 132.34C26.2375 134.288 25.8833 136.299 25.77 138.33C26.7089 137.552 27.4976 136.608 28.097 135.546C28.121 135.514 28.1557 135.493 28.1947 135.485C28.2336 135.477 28.2741 135.483 28.3085 135.503C28.3429 135.523 28.3688 135.555 28.3815 135.593C28.3941 135.63 28.3925 135.671 28.377 135.708Z" fill="#FFCEAB"/>
<path d="M36.158 137.129C35.4531 137.529 34.6411 137.699 33.835 137.616C32.6175 138.418 31.4632 139.312 30.382 140.29C29.7335 141.031 29.2647 141.911 29.012 142.863H28.671C28.7457 142.594 28.8333 142.327 28.934 142.063C29.0706 141.711 29.2354 141.37 29.427 141.044C29.401 141.017 29.386 140.981 29.385 140.944C29.3675 140.824 29.323 140.71 29.255 140.61C29.1933 140.488 29.1444 140.359 29.109 140.227C29.0422 139.954 29.0402 139.67 29.103 139.396C29.148 139.196 29.463 139.279 29.418 139.48C29.363 139.724 29.372 139.978 29.444 140.217C29.496 140.386 29.59 140.535 29.652 140.697C29.8164 140.453 29.9985 140.221 30.197 140.003C30.7878 139.413 31.4394 138.888 32.141 138.436C32.621 138.105 33.128 137.764 33.598 137.388C33.6073 137.361 33.6241 137.337 33.6465 137.32C33.6688 137.302 33.6957 137.291 33.724 137.288C34.505 136.701 35.0981 135.899 35.431 134.981C35.493 134.781 35.807 134.867 35.743 135.069C35.4547 135.902 34.953 136.645 34.288 137.223C34.2547 137.255 34.2213 137.285 34.188 137.314C34.821 137.321 35.4446 137.161 35.996 136.85C36.0324 136.835 36.0727 136.834 36.1098 136.847C36.1468 136.86 36.178 136.886 36.1977 136.919C36.2174 136.953 36.2242 136.993 36.2169 137.032C36.2096 137.07 36.1887 137.105 36.158 137.129Z" fill="#FFCEAB"/>
<path d="M127.578 13.561H62.097C58.7833 13.561 56.097 16.2473 56.097 19.561V136.623C56.097 139.937 58.7833 142.623 62.097 142.623H127.578C130.892 142.623 133.578 139.937 133.578 136.623V19.561C133.578 16.2473 130.892 13.561 127.578 13.561Z" fill="white"/>
<path d="M127.358 5.394H62.39C61.3413 5.39374 60.3028 5.60009 59.3338 6.00127C58.3648 6.40245 57.4844 6.99059 56.7428 7.73211C56.0012 8.47362 55.4129 9.35398 55.0116 10.3229C54.6103 11.2918 54.4039 12.3303 54.404 13.379V135.229C54.4031 136.373 54.6488 137.505 55.1241 138.546C55.5995 139.587 56.2936 140.513 57.159 141.262L57.329 141.406C58.7546 142.579 60.5441 143.218 62.39 143.214H127.358C129.476 143.213 131.507 142.372 133.005 140.875C134.503 139.378 135.346 137.347 135.348 135.229V13.383C135.348 12.3337 135.141 11.2948 134.739 10.3254C134.338 9.35609 133.749 8.47536 133.007 7.73351C132.265 6.99166 131.384 6.40323 130.415 6.00182C129.445 5.60041 128.407 5.39387 127.358 5.394ZM133.658 132.117C133.592 134.404 132.622 136.572 130.959 138.144C129.296 139.716 127.077 140.564 124.79 140.502H64.964C62.6766 140.564 60.4581 139.716 58.7954 138.144C57.1328 136.572 56.1619 134.404 56.096 132.117V21.288C56.1368 19.8654 56.7407 18.5171 57.775 17.5395C58.8092 16.5618 60.1893 16.0347 61.612 16.074H128.14C129.562 16.035 130.942 16.5622 131.976 17.5398C133.01 18.5175 133.614 19.8655 133.655 21.288L133.658 132.117Z" fill="#CD2222"/>
<path d="M67.28 10.992C67.28 11.5003 67.1293 11.9972 66.8469 12.4198C66.5645 12.8424 66.1631 13.1719 65.6935 13.3664C65.2239 13.5609 64.7071 13.6118 64.2086 13.5126C63.7101 13.4135 63.2522 13.1687 62.8927 12.8093C62.5333 12.4498 62.2885 11.9919 62.1894 11.4934C62.0902 10.9949 62.1411 10.4781 62.3356 10.0085C62.5301 9.5389 62.8596 9.13752 63.2822 8.85512C63.7048 8.57273 64.2017 8.422 64.71 8.422C65.3916 8.422 66.0453 8.69277 66.5273 9.17474C67.0092 9.6567 67.28 10.3104 67.28 10.992Z" fill="white"/>
<path d="M66.449 10.992C66.449 11.336 66.347 11.6722 66.1559 11.9582C65.9647 12.2442 65.6931 12.4671 65.3753 12.5987C65.0574 12.7303 64.7077 12.7647 64.3704 12.6975C64.033 12.6303 63.7231 12.4646 63.48 12.2213C63.2368 11.978 63.0713 11.668 63.0043 11.3306C62.9373 10.9932 62.9719 10.6436 63.1037 10.3258C63.2354 10.0081 63.4585 9.73655 63.7446 9.54559C64.0307 9.35462 64.367 9.2528 64.711 9.253C65.172 9.25353 65.6139 9.43695 65.9397 9.76299C66.2656 10.089 66.4487 10.531 66.449 10.992Z" fill="#CD2222"/>
<path d="M72.54 10.992C72.54 11.3359 72.438 11.6722 72.2469 11.9581C72.0558 12.2441 71.7842 12.467 71.4665 12.5986C71.1487 12.7302 70.7991 12.7647 70.4617 12.6976C70.1244 12.6305 69.8145 12.4649 69.5713 12.2217C69.3281 11.9785 69.1625 11.6686 69.0954 11.3313C69.0283 10.9939 69.0627 10.6443 69.1944 10.3265C69.326 10.0088 69.5489 9.73716 69.8349 9.54607C70.1208 9.35499 70.4571 9.253 70.801 9.253C71.2621 9.25327 71.7043 9.43657 72.0304 9.76263C72.3564 10.0887 72.5397 10.5309 72.54 10.992Z" fill="white"/>
<path d="M95.038 33.844C90.2928 33.844 85.6542 35.2511 81.7088 37.8874C77.7633 40.5237 74.6882 44.2707 72.8723 48.6547C71.0564 53.0386 70.5813 57.8626 71.507 62.5166C72.4327 67.1706 74.7178 71.4456 78.0731 74.8009C81.4284 78.1562 85.7034 80.4413 90.3574 81.367C95.0114 82.2927 99.8354 81.8176 104.219 80.0017C108.603 78.1858 112.35 75.1107 114.987 71.1652C117.623 67.2198 119.03 62.5812 119.03 57.836C119.03 54.6853 118.41 51.5653 117.204 48.6543C115.999 45.7434 114.231 43.0984 112.003 40.8705C109.776 38.6426 107.131 36.8754 104.22 35.6697C101.309 34.4641 98.1888 33.8437 95.038 33.844ZM72.697 57.836C72.6952 53.74 73.82 49.7224 75.9483 46.2228C78.0766 42.7232 81.1265 39.8764 84.7642 37.9938C88.4019 36.1112 92.4873 35.2653 96.5735 35.5488C100.66 35.8323 104.589 37.2341 107.932 39.601L80.823 75.064C78.2804 72.9706 76.233 70.3401 74.828 67.3613C73.423 64.3825 72.6952 61.1295 72.697 57.836ZM95.038 80.177C90.4145 80.1824 85.9047 78.7442 82.138 76.063L109.248 40.603C112.8 43.5278 115.362 47.4783 116.583 51.9142C117.804 56.3502 117.626 61.0552 116.072 65.3859C114.518 69.7165 111.664 73.4616 107.901 76.1089C104.138 78.7563 99.6491 80.1767 95.048 80.176L95.038 80.177Z" fill="#CD2222"/>
<path d="M111.197 101.911H77.633C77.4617 101.911 77.2974 101.843 77.1762 101.722C77.0551 101.601 76.987 101.436 76.987 101.265C76.987 101.094 77.0551 100.929 77.1762 100.808C77.2974 100.687 77.4617 100.619 77.633 100.619H111.197C111.368 100.619 111.533 100.687 111.654 100.808C111.775 100.929 111.843 101.094 111.843 101.265C111.843 101.436 111.775 101.601 111.654 101.722C111.533 101.843 111.368 101.911 111.197 101.911Z" fill="#CD2222"/>
<path d="M117.959 108.154H70.871C70.6997 108.154 70.5354 108.086 70.4142 107.965C70.2931 107.844 70.225 107.679 70.225 107.508C70.225 107.337 70.2931 107.172 70.4142 107.051C70.5354 106.93 70.6997 106.862 70.871 106.862H117.959C118.13 106.862 118.295 106.93 118.416 107.051C118.537 107.172 118.605 107.337 118.605 107.508C118.605 107.679 118.537 107.844 118.416 107.965C118.295 108.086 118.13 108.154 117.959 108.154Z" fill="#CD2222"/>
<path d="M53.617 91.801C52.657 105.523 51.255 118.156 51.371 129.822C51.394 132.112 50.985 134.403 50.922 136.55C50.922 136.55 48.399 136.377 48.122 136.402C47.838 134.228 47.422 131.95 47.175 129.731C46.053 119.353 45.428 108.462 45.181 97.196L53.617 91.801Z" fill="#FFCEAB"/>
<path d="M53.595 89.472C58.521 96.072 50.243 110.872 51.836 129.991L46.778 129.911C45.656 119.532 45.423 108.463 45.178 97.196L53.595 89.472Z" fill="#23263D"/>
<path d="M50.981 136.086L51.838 138.444L51.573 142.192L50.838 142.266L49.996 139.041L48.918 141.268C48.7987 141.568 48.6094 141.836 48.3659 142.048C48.1224 142.26 47.8317 142.412 47.518 142.489C45.79 142.805 42.393 143.041 42.193 141.906C41.987 140.74 45.28 140.518 46.175 139.179C47.042 137.879 48.075 136.189 48.075 136.189L50.981 136.086Z" fill="#23263D"/>
<path d="M46.477 83.019C64.756 97.285 40.421 105.752 41.34 110.098C42.259 114.444 48.08 120.382 48.689 121.355C49.033 122.498 49.477 124.755 48.119 124.438C47.3392 123.702 46.3736 123.192 45.326 122.964C45.326 122.964 46.526 123.136 44.926 122.873C43.326 122.61 35.647 115.421 35.263 112.831C34.2 105.665 40.892 100.088 43.117 94.875C45.342 89.662 44.669 87.311 46.477 83.019Z" fill="#FFCEAB"/>
<path d="M46.413 83.005C48.6531 83.9093 50.5476 85.5027 51.8223 87.5547C53.097 89.6068 53.686 92.0111 53.504 94.42C53.066 102.28 41.752 107.635 42.479 110.998C42.634 111.713 46.114 117.817 47.803 119.408C47.0579 120.78 46.1908 122.082 45.212 123.299C42.535 121.765 35.045 116.147 34.483 113.199C33.101 105.919 44.028 90.047 46.413 83.005Z" fill="#393D5C"/>
<path d="M48.669 121.259C49.3095 121.178 49.9536 121.13 50.599 121.114C51.516 121.154 53.118 121.422 54.164 121.514C54.202 121.768 54.193 122.008 54.213 122.256C53.13 122.484 52.039 122.701 50.963 122.937C51.627 123.269 52.477 123.81 53.103 124.105C53.3874 124.249 53.6373 124.453 53.8358 124.703C54.0342 124.953 54.1765 125.242 54.253 125.552C54.494 126.818 54.887 130.443 53.443 130.709C51.999 130.975 51.885 127.494 50.91 126.771C49.935 126.048 48.983 125.28 48.04 124.534C48.244 123.439 48.46 122.354 48.669 121.259Z" fill="#393D5C"/>
<path d="M46.7 64.463L46.5 65.683C46.685 65.246 50.7 63.641 46.512 73.783C45.73 75.683 43.144 79.998 41.662 79.932C38.047 79.771 31.593 71.794 31.593 71.794C30.8038 71.227 30.1697 70.4709 29.749 69.5949C29.3282 68.719 29.1343 67.7514 29.185 66.781C29.885 63.037 30.785 68.126 32.557 68.43C32.949 68.501 33.224 66.801 33.812 67.43C34.254 67.905 33.696 70.13 33.696 70.13C33.696 70.13 40.611 75.076 40.765 75.058C41.028 74.81 43.865 66.171 45.848 64.858C46.1067 64.6776 46.3951 64.5439 46.7 64.463Z" fill="#FFCEAB"/>
<path d="M46.504 65.683L47.971 73.265C47.971 73.265 45.881 77.552 45.614 78.415C43.6838 77.363 42.025 75.8761 40.769 74.072C42.063 71.785 44.851 64.525 46.838 63.208L46.504 65.683Z" fill="#CD2222"/>
<path d="M42.81 58.808C42.2146 58.2695 41.7931 57.5659 41.5993 56.7868C41.4055 56.0078 41.4483 55.1887 41.722 54.434C42.565 52.028 46.555 51.144 48.093 52.094C48.7448 52.5104 49.2856 53.0788 49.6691 53.7505C50.0526 54.4221 50.2672 55.1768 50.2944 55.9498C50.3217 56.7227 50.1608 57.4907 49.8256 58.1877C49.4903 58.8846 48.9908 59.4898 48.37 59.951L42.81 58.808Z" fill="#393D5C"/>
<path d="M54.8 66.583C56.039 70.95 55.671 73.544 55.72 77.359C55.872 80.304 53.793 85.005 52.353 88.482C49.711 87.996 46.265 87.882 43.621 87.395C43.621 87.395 50.352 79.649 48.679 75.872C45.621 68.735 46.838 63.208 46.838 63.208C46.619 62.783 45.82 61.218 45.588 60.765L47.904 59.4C48.449 60.047 49.651 61.465 50.204 62.122C51.6229 63.7226 53.1606 65.2139 54.804 66.583H54.8Z" fill="#FFCEAB"/>
<path d="M54.476 86.225C53.803 88.777 54.822 89.772 54.276 89.964C51.069 91.098 45.697 89.641 43.408 88.872C41.456 88.216 46.045 82.364 44.928 76.121C43.177 66.329 46.834 63.207 46.834 63.207C47.076 65.649 48.365 64.76 50.202 62.122C57.927 64.011 58.169 74.72 54.476 86.225Z" fill="#CD2222"/>
<path d="M48.855 60.531C48.234 61.3777 47.4305 62.0739 46.504 62.568L45.583 60.768L47.9 59.403L48.855 60.531Z" fill="#E6E6E6"/>
<path d="M48.545 57.106C48.545 57.106 49.458 55.912 48.789 55.243C48.027 54.481 47.009 56.351 47.009 56.351C45.593 56.82 44.442 56.498 42.865 55.621C42.7831 55.5754 42.6899 55.5541 42.5963 55.5597C42.5027 55.5652 42.4126 55.5973 42.3366 55.6522C42.2606 55.7071 42.2019 55.7825 42.1672 55.8696C42.1326 55.9567 42.1235 56.0519 42.141 56.144C42.468 57.844 43.254 61.08 44.591 61.694C44.9388 61.8402 45.3157 61.9041 45.6923 61.8806C46.0689 61.8572 46.435 61.7471 46.762 61.559C48.24 60.822 48.552 57.261 48.545 57.106Z" fill="#FFCEAB"/>
<path d="M47.347 51.811C47.347 51.811 47.923 49.227 49.98 50.253C50.3528 50.3953 50.6673 50.6581 50.8737 50.9997C51.08 51.3412 51.1663 51.7419 51.1188 52.1381C51.0714 52.5343 50.8929 52.9033 50.6117 53.1865C50.3306 53.4696 49.9629 53.6507 49.567 53.701C48.15 53.853 47.347 51.811 47.347 51.811Z" fill="#393D5C"/>
<path d="M42.81 58.807C42.81 58.807 42.746 56.507 42.587 55.514C42.587 55.514 43.033 57.125 45.487 57.514C46.0181 57.6079 46.503 57.8758 46.8651 58.2756C47.2272 58.6753 47.446 59.1842 47.487 59.722C47.7317 58.5761 47.562 57.3805 47.008 56.348L46.152 54.936C45.7017 54.8324 45.2601 54.6944 44.831 54.523C44.817 54.442 42.302 54.423 42.302 54.423L41.742 55.796L42.81 58.807Z" fill="#393D5C"/>
<path d="M51.506 85.315C50.279 86.989 44.389 92.415 42.836 94.045C42.753 94.1306 42.691 94.2343 42.6549 94.348C42.6188 94.4617 42.6096 94.5822 42.628 94.7C42.708 95.205 42.482 95.531 41.408 96.812C40.275 98.15 41.77 101.796 39.522 99.637C37.838 98.019 38.822 95.606 40.089 93.263L47.289 81.907C47.8169 78.7483 48.1177 75.5557 48.189 72.354C48.226 71.165 51.407 67.431 54.063 71.534C55.472 73.704 52.591 83.836 51.506 85.315Z" fill="#FFCEAB"/>
<path d="M54.405 78.22C52.0266 78.4043 49.6357 78.1004 47.379 77.327C47.379 77.327 46.301 63.505 51.799 65.077C55.594 66.163 55.507 73.458 54.405 78.22Z" fill="#CD2222"/>
<path d="M28.338 62.738L29.341 62.128L33.596 69.121L32.593 69.731L28.338 62.738Z" fill="#393D5C"/>
<path d="M31.148 29.427C32.9664 29.427 34.7518 29.912 36.3203 30.832C37.8887 31.7519 39.1835 33.0735 40.0711 34.6606C40.9586 36.2476 41.4069 38.0426 41.3696 39.8606C41.3323 41.6785 40.8109 43.4537 39.859 45.003L42.133 50.403L35.681 48.814C34.3001 49.4971 32.7828 49.8593 31.2422 49.8736C29.7017 49.8878 28.1779 49.5537 26.7846 48.8963C25.3914 48.2389 24.1647 47.2751 23.1963 46.0769C22.2278 44.8788 21.5427 43.4773 21.192 41.9772C20.8414 40.477 20.8342 38.917 21.1712 37.4137C21.5082 35.9105 22.1805 34.5028 23.138 33.2958C24.0954 32.0889 25.3133 31.114 26.7005 30.4439C28.0877 29.7737 29.6084 29.4258 31.149 29.426L31.148 29.427Z" fill="#CD2222"/>
<path d="M31.527 42.647L28.465 41.803L28.549 41.497C28.6536 41.0632 28.8318 40.6505 29.076 40.277C29.2851 39.9827 29.5472 39.7301 29.849 39.532C30.4824 39.1619 31.1391 38.8332 31.815 38.548C32.3483 38.3133 32.6557 38.0467 32.737 37.748C32.7796 37.6233 32.7952 37.491 32.7828 37.3598C32.7704 37.2286 32.7302 37.1015 32.665 36.987C32.491 36.7452 32.2314 36.5789 31.939 36.522C31.7651 36.4682 31.582 36.4508 31.4012 36.4711C31.2203 36.4915 31.0456 36.5489 30.888 36.64C30.485 36.9346 30.1887 37.3523 30.044 37.83L27.024 36.581C27.3742 35.5497 28.0928 34.684 29.042 34.15C30.1918 33.6356 31.4969 33.5896 32.68 34.022C33.6906 34.25 34.6087 34.7781 35.314 35.537C35.6915 35.9368 35.9581 36.4281 36.0875 36.9625C36.2169 37.4969 36.2047 38.0558 36.052 38.584C35.9206 39.0501 35.6636 39.4712 35.309 39.801C34.7184 40.2857 34.0504 40.6673 33.333 40.93C32.8543 41.1011 32.4098 41.3557 32.02 41.682C31.7778 41.9575 31.6083 42.2893 31.527 42.647ZM28.136 42.588L31.416 43.488L30.616 46.381L27.336 45.481L28.136 42.588Z" fill="white"/>
<path d="M171.046 8.961C169.201 8.1541 167.16 7.90955 165.176 8.25798C163.193 8.60641 161.357 9.53234 159.898 10.9197C158.439 12.3071 157.422 14.0943 156.974 16.0573C156.526 18.0203 156.667 20.0718 157.38 21.9548C158.093 23.8378 159.346 25.4684 160.982 26.6425C162.618 27.8166 164.563 28.4819 166.575 28.5549C168.588 28.628 170.577 28.1056 172.293 27.0532C174.01 26.0009 175.377 24.4653 176.225 22.639C177.352 20.1384 177.439 17.2926 176.468 14.7276C175.497 12.1625 173.546 10.0883 171.046 8.961ZM163.098 26.083C161.587 25.3405 160.33 24.1687 159.482 22.7145C158.635 21.2603 158.235 19.5883 158.334 17.908C158.433 16.2278 159.025 14.614 160.037 13.2689C161.048 11.9238 162.435 10.9072 164.022 10.3464C165.609 9.78573 167.326 9.70585 168.958 10.1168C170.59 10.5278 172.065 11.4113 173.197 12.6566C174.329 13.902 175.069 15.4538 175.323 17.1177C175.577 18.7815 175.335 20.4834 174.626 22.01C173.637 24.0789 171.867 25.6701 169.704 26.4337C167.542 27.1974 165.165 27.0708 163.096 26.082L163.098 26.083Z" fill="#CD2222"/>
<path d="M169.147 16.626L162.988 12.883L164.339 19.944L170.587 23.69L169.149 16.628L169.147 16.626Z" fill="#CD2222"/>
<path d="M167.748 17.468C167.887 17.6661 167.964 17.901 167.97 18.143C167.976 18.385 167.909 18.6233 167.779 18.8275C167.65 19.0318 167.462 19.1929 167.24 19.2905C167.019 19.3881 166.773 19.4177 166.535 19.3757C166.296 19.3336 166.076 19.2217 165.901 19.0542C165.726 18.8867 165.605 18.6711 165.553 18.4347C165.501 18.1983 165.52 17.9517 165.608 17.7262C165.696 17.5007 165.849 17.3064 166.048 17.168C166.313 16.983 166.641 16.9106 166.96 16.9669C167.279 17.0231 167.562 17.2033 167.748 17.468Z" fill="white"/>
<path d="M168.545 89.687C167.293 86.942 165.506 84.455 164.385 81.654C162.312 76.474 162.672 70.679 161.711 65.183C160.75 59.687 157.68 53.783 152.23 52.593C148.191 51.708 143.945 53.793 141.223 56.902C138.501 60.011 137.038 64.013 135.83 67.968C134.973 70.775 134.13 73.762 131.985 75.768C130.548 77.115 128.654 77.888 127.185 79.2C126.067 80.2911 125.202 81.6144 124.652 83.0764C124.101 84.5384 123.878 86.1035 123.999 87.661C124.267 90.7779 125.244 93.7921 126.856 96.473C127.867 98.0426 128.678 99.7319 129.272 101.502C129.915 103.943 129.472 106.529 129.695 109.044C129.878 111.106 130.51 113.102 131.545 114.895C132.58 116.687 133.995 118.231 135.689 119.42C137.384 120.608 139.317 121.412 141.355 121.776C143.393 122.139 145.485 122.053 147.486 121.523C154.504 125.54 166.653 119.851 167.133 111.423C167.563 103.87 171.683 96.567 168.545 89.687Z" fill="#CD2222"/>
<path d="M168.545 89.687C167.293 86.942 165.506 84.455 164.385 81.653C162.312 76.473 162.672 70.678 161.711 65.182C160.75 59.686 157.68 53.782 152.23 52.592C148.191 51.707 143.945 53.792 141.222 56.901C140.907 57.263 140.607 57.6363 140.322 58.021C140.587 59.5119 140.999 60.973 141.552 62.383C142.673 65.183 144.459 67.671 145.712 70.417C148.85 77.297 144.73 84.6 144.301 92.149C143.922 98.813 136.254 103.762 129.59 103.562C129.717 105.373 129.532 107.227 129.69 109.045C129.873 111.108 130.505 113.105 131.541 114.898C132.577 116.691 133.992 118.236 135.688 119.424C137.383 120.613 139.318 121.417 141.357 121.779C143.395 122.142 145.489 122.054 147.49 121.523C154.508 125.54 166.657 119.851 167.137 111.423C167.562 103.87 171.683 96.567 168.545 89.687Z" fill="#CD2222"/>
<path d="M168.545 89.687C167.293 86.942 165.506 84.455 164.385 81.653C162.312 76.473 162.672 70.678 161.711 65.182C160.75 59.686 157.68 53.782 152.23 52.592C151.762 52.491 151.287 52.4274 150.809 52.402C151.075 53.2835 151.287 54.1801 151.445 55.087C152.406 60.587 152.045 66.378 154.119 71.558C155.24 74.358 157.026 76.846 158.278 79.592C161.417 86.472 157.296 93.775 156.867 101.325C156.388 109.757 144.239 115.445 137.22 111.425C134.896 112.028 132.458 112.035 130.131 111.448C131.097 115.085 133.468 118.189 136.722 120.078C139.977 121.967 143.848 122.486 147.485 121.521C154.503 125.538 166.652 119.849 167.132 111.421C167.563 103.87 171.683 96.567 168.545 89.687Z" fill="#CD2222"/>
<path d="M154.753 80.935C152.463 83.135 150.282 85.451 148.18 87.835V74.649C148.18 74.5164 148.127 74.3892 148.034 74.2954C147.94 74.2017 147.813 74.149 147.68 74.149C147.547 74.149 147.42 74.2017 147.326 74.2954C147.233 74.3892 147.18 74.5164 147.18 74.649V89.012C147.151 89.1072 147.151 89.2088 147.18 89.304V104.68L139.462 94.121C139.085 93.605 138.214 94.105 138.596 94.628L146.947 106.059C147.005 106.137 147.085 106.197 147.177 106.23V142.4C147.177 142.533 147.23 142.66 147.323 142.754C147.417 142.847 147.544 142.9 147.677 142.9C147.81 142.9 147.937 142.847 148.031 142.754C148.124 142.66 148.177 142.533 148.177 142.4V89.329C150.488 86.6623 152.916 84.101 155.46 81.645C155.928 81.196 155.218 80.487 154.753 80.935Z" fill="#004057"/>
<path d="M193.876 142.624H12.299C12.156 142.624 12.04 142.74 12.04 142.883C12.04 143.026 12.156 143.142 12.299 143.142H193.876C194.019 143.142 194.135 143.026 194.135 142.883C194.135 142.74 194.019 142.624 193.876 142.624Z" fill="#282D47"/>
<path d="M8.633 142.624H0.259C0.115958 142.624 0 142.74 0 142.883C0 143.026 0.115958 143.142 0.259 143.142H8.633C8.77604 143.142 8.892 143.026 8.892 142.883C8.892 142.74 8.77604 142.624 8.633 142.624Z" fill="#30334D"/>
<path d="M165.674 150.019H157.3C157.157 150.019 157.041 150.135 157.041 150.278C157.041 150.421 157.157 150.537 157.3 150.537H165.674C165.817 150.537 165.933 150.421 165.933 150.278C165.933 150.135 165.817 150.019 165.674 150.019Z" fill="#30334D"/>
<path d="M150.844 150.019H116.07C115.927 150.019 115.811 150.135 115.811 150.278C115.811 150.421 115.927 150.537 116.07 150.537H150.844C150.987 150.537 151.103 150.421 151.103 150.278C151.103 150.135 150.987 150.019 150.844 150.019Z" fill="#30334D"/>
<path d="M174.525 68.625C174.563 68.6864 174.586 68.7556 174.592 68.8272C174.599 68.8989 174.589 68.9711 174.563 69.0383C174.537 69.1054 174.496 69.1657 174.443 69.2144C174.39 69.2631 174.326 69.2989 174.257 69.319L172.689 69.776C172.61 69.7991 172.526 69.801 172.447 69.7815C172.367 69.762 172.293 69.7218 172.234 69.6649C172.174 69.608 172.131 69.5365 172.108 69.4575C172.085 69.3785 172.083 69.2949 172.103 69.215L172.491 67.628C172.511 67.5482 172.551 67.475 172.607 67.4157C172.664 67.3563 172.736 67.313 172.815 67.29C172.893 67.267 172.977 67.2651 173.057 67.2846C173.136 67.3041 173.21 67.3443 173.269 67.401L174.449 68.531C174.478 68.5591 174.504 68.5907 174.525 68.625ZM172.473 69.378L172.489 69.398C172.502 69.4107 172.518 69.4196 172.536 69.4238C172.553 69.4281 172.572 69.4274 172.589 69.422L174.157 68.965C174.174 68.96 174.189 68.9507 174.201 68.9381C174.212 68.9255 174.221 68.91 174.225 68.8932C174.229 68.8763 174.229 68.8587 174.224 68.842C174.219 68.8253 174.21 68.8102 174.198 68.798L173.018 67.669C173.005 67.6572 172.99 67.6489 172.973 67.6448C172.956 67.6408 172.938 67.6413 172.922 67.6461C172.905 67.651 172.89 67.66 172.878 67.6725C172.866 67.6849 172.857 67.7002 172.853 67.717L172.465 69.304C172.455 69.3281 172.455 69.3549 172.465 69.379L172.473 69.378Z" fill="#CD2222"/>
<path d="M11.328 46.476C11.3652 46.5374 11.3879 46.6066 11.3942 46.6782C11.4005 46.7497 11.3903 46.8218 11.3644 46.8888C11.3386 46.9558 11.2977 47.016 11.2449 47.0648C11.1921 47.1135 11.1289 47.1495 11.06 47.17L9.492 47.627C9.41316 47.65 9.32964 47.6519 9.24983 47.6325C9.17003 47.613 9.09675 47.5729 9.03736 47.5161C8.97797 47.4594 8.93457 47.388 8.91151 47.3092C8.88845 47.2303 8.88655 47.1468 8.906 47.067L9.294 45.48C9.31352 45.4002 9.3537 45.327 9.41048 45.2677C9.46726 45.2083 9.53866 45.165 9.6175 45.142C9.69633 45.119 9.77984 45.1171 9.85961 45.1366C9.93939 45.1561 10.0126 45.1962 10.072 45.253L11.252 46.382C11.281 46.4101 11.3066 46.4417 11.328 46.476ZM9.276 47.23C9.28756 47.2493 9.3053 47.2642 9.32635 47.2722C9.3474 47.2801 9.37053 47.2808 9.392 47.274L10.96 46.817C10.9766 46.812 10.9916 46.8027 11.0035 46.7901C11.0154 46.7775 11.0239 46.762 11.028 46.7452C11.0322 46.7283 11.0318 46.7107 11.0271 46.694C11.0224 46.6773 11.0134 46.6622 11.001 46.65L9.821 45.521C9.80833 45.5092 9.79281 45.5009 9.77596 45.4968C9.7591 45.4928 9.74149 45.4933 9.72486 45.4981C9.70822 45.5029 9.69313 45.512 9.68106 45.5245C9.66899 45.5369 9.66035 45.5522 9.656 45.569L9.268 47.156C9.264 47.1687 9.26255 47.182 9.26376 47.1952C9.26496 47.2084 9.26878 47.2213 9.275 47.233L9.276 47.23Z" fill="#CD2222"/>
<path d="M150.127 23.931L150.704 23.354C150.767 23.2911 150.802 23.2059 150.802 23.117C150.802 23.0281 150.767 22.9429 150.704 22.88C150.641 22.8171 150.556 22.7818 150.467 22.7818C150.378 22.7818 150.293 22.8171 150.23 22.88L149.653 23.457L149.076 22.88C149.013 22.8171 148.928 22.7818 148.839 22.7818C148.75 22.7818 148.665 22.8171 148.602 22.88C148.539 22.9429 148.504 23.0281 148.504 23.117C148.504 23.2059 148.539 23.2911 148.602 23.354L149.179 23.931L148.603 24.507C148.54 24.5699 148.505 24.6551 148.505 24.744C148.505 24.8329 148.54 24.9181 148.603 24.981C148.666 25.0439 148.751 25.0792 148.84 25.0792C148.929 25.0792 149.014 25.0439 149.077 24.981L149.653 24.405L150.229 24.981C150.292 25.0439 150.377 25.0792 150.466 25.0792C150.555 25.0792 150.64 25.0439 150.703 24.981C150.766 24.9181 150.801 24.8329 150.801 24.744C150.801 24.6551 150.766 24.5699 150.703 24.507L150.127 23.931Z" fill="#CD2222"/>
<path d="M49.871 5.393L50.448 4.816C50.4791 4.78488 50.5038 4.74793 50.5207 4.70726C50.5375 4.6666 50.5462 4.62301 50.5462 4.579C50.5462 4.53499 50.5375 4.4914 50.5207 4.45074C50.5038 4.41007 50.4791 4.37312 50.448 4.342C50.4169 4.31088 50.3799 4.28619 50.3393 4.26934C50.2986 4.2525 50.255 4.24383 50.211 4.24383C50.167 4.24383 50.1234 4.2525 50.0827 4.26934C50.0421 4.28619 50.0051 4.31088 49.974 4.342L49.397 4.919L48.82 4.342C48.7571 4.27914 48.6719 4.24383 48.583 4.24383C48.4941 4.24383 48.4089 4.27914 48.346 4.342C48.2831 4.40486 48.2478 4.49011 48.2478 4.579C48.2478 4.66789 48.2831 4.75314 48.346 4.816L48.923 5.393L48.347 5.969C48.2841 6.03186 48.2488 6.11711 48.2488 6.206C48.2488 6.29489 48.2841 6.38014 48.347 6.443C48.4099 6.50586 48.4951 6.54117 48.584 6.54117C48.6729 6.54117 48.7581 6.50586 48.821 6.443L49.397 5.867L49.973 6.443C50.0359 6.50586 50.1211 6.54117 50.21 6.54117C50.2989 6.54117 50.3841 6.50586 50.447 6.443C50.5099 6.38014 50.5452 6.29489 50.5452 6.206C50.5452 6.11711 50.5099 6.03186 50.447 5.969L49.871 5.393Z" fill="#CD2222"/>
<path d="M185.512 41.237C185.251 41.237 184.996 41.1597 184.78 41.0149C184.563 40.8701 184.394 40.6642 184.294 40.4234C184.195 40.1825 184.168 39.9175 184.219 39.6619C184.27 39.4062 184.396 39.1714 184.58 38.987C184.764 38.8027 184.999 38.6772 185.255 38.6263C185.511 38.5755 185.776 38.6016 186.016 38.7013C186.257 38.8011 186.463 38.97 186.608 39.1868C186.753 39.4035 186.83 39.6583 186.83 39.919C186.829 40.2684 186.69 40.6033 186.443 40.8504C186.196 41.0974 185.861 41.2365 185.512 41.237ZM185.512 39.014C185.334 39.015 185.161 39.0686 185.013 39.1681C184.866 39.2676 184.751 39.4085 184.684 39.573C184.617 39.7376 184.6 39.9184 184.635 40.0926C184.67 40.2669 184.756 40.4268 184.882 40.5521C185.008 40.6775 185.169 40.7627 185.343 40.7971C185.518 40.8314 185.698 40.8133 185.863 40.745C186.027 40.6767 186.167 40.5614 186.266 40.4135C186.364 40.2656 186.417 40.0918 186.417 39.914C186.417 39.7954 186.394 39.6779 186.348 39.5684C186.302 39.4589 186.236 39.3595 186.152 39.2758C186.068 39.1922 185.968 39.126 185.858 39.0811C185.748 39.0361 185.631 39.0133 185.512 39.014Z" fill="#CD2222"/>
<path d="M22.217 98.949C21.9562 98.9492 21.7013 98.872 21.4844 98.7273C21.2675 98.5825 21.0984 98.3767 20.9985 98.1358C20.8986 97.895 20.8725 97.6299 20.9233 97.3741C20.9741 97.1184 21.0996 96.8834 21.284 96.699C21.4684 96.5147 21.7034 96.3891 21.9591 96.3383C22.2149 96.2875 22.48 96.3136 22.7208 96.4135C22.9617 96.5134 23.1675 96.6825 23.3123 96.8994C23.457 97.1163 23.5342 97.3712 23.534 97.632C23.5332 97.9811 23.3942 98.3156 23.1474 98.5624C22.9006 98.8092 22.566 98.9482 22.217 98.949ZM22.217 96.726C22.0378 96.725 21.8623 96.7772 21.7129 96.8761C21.5634 96.9749 21.4466 97.1159 21.3773 97.2812C21.3081 97.4465 21.2894 97.6286 21.3238 97.8045C21.3581 97.9804 21.4439 98.1421 21.5703 98.2691C21.6967 98.3962 21.8579 98.4829 22.0336 98.5182C22.2093 98.5536 22.3915 98.5359 22.5572 98.4676C22.7228 98.3992 22.8645 98.2832 22.9641 98.1343C23.0638 97.9854 23.117 97.8102 23.117 97.631C23.117 97.3918 23.0223 97.1624 22.8537 96.9928C22.6851 96.8233 22.4562 96.7273 22.217 96.726Z" fill="#CD2222"/>
<path d="M142.009 20.563L130.409 0.473C130.326 0.329116 130.206 0.20966 130.062 0.126614C129.918 0.0435672 129.755 -0.000148707 129.589 -0.000148707C129.422 -0.000148707 129.259 0.0435672 129.115 0.126614C128.971 0.20966 128.851 0.329116 128.768 0.473L117.168 20.562C117.085 20.7061 117.041 20.8695 117.042 21.0357C117.042 21.202 117.086 21.3653 117.169 21.5093C117.252 21.6532 117.371 21.7728 117.515 21.8559C117.659 21.9391 117.823 21.9829 117.989 21.983H141.189C141.355 21.9826 141.518 21.9387 141.662 21.8555C141.805 21.7723 141.925 21.6529 142.008 21.5091C142.091 21.3653 142.135 21.2022 142.135 21.0362C142.135 20.8702 142.092 20.707 142.009 20.563Z" fill="#CD2222"/>
<path d="M140.192 19.898L130.079 2.383C130.03 2.29743 129.959 2.22635 129.873 2.17693C129.788 2.12751 129.691 2.10149 129.592 2.10149C129.493 2.10149 129.396 2.12751 129.311 2.17693C129.225 2.22635 129.154 2.29743 129.105 2.383L118.993 19.898C118.944 19.9835 118.918 20.0804 118.918 20.1791C118.918 20.2778 118.944 20.3747 118.993 20.4601C119.042 20.5456 119.113 20.6165 119.199 20.6658C119.284 20.7151 119.381 20.7411 119.48 20.741H139.705C139.804 20.7411 139.901 20.7151 139.986 20.6658C140.072 20.6165 140.143 20.5456 140.192 20.4601C140.241 20.3747 140.267 20.2778 140.267 20.1791C140.267 20.0804 140.241 19.9835 140.192 19.898Z" fill="white"/>
<path d="M140.192 19.898L130.08 2.383C130.031 2.29743 129.96 2.22635 129.874 2.17693C129.789 2.12751 129.692 2.10149 129.593 2.10149C129.494 2.10149 129.397 2.12751 129.312 2.17693C129.226 2.22635 129.155 2.29743 129.106 2.383L129.052 2.477L138.775 19.318C138.824 19.4035 138.85 19.5004 138.85 19.5991C138.85 19.6978 138.824 19.7947 138.775 19.8801C138.726 19.9656 138.655 20.0365 138.569 20.0858C138.484 20.1351 138.387 20.1611 138.288 20.161H118.919C118.916 20.2364 118.929 20.3115 118.956 20.3819C118.983 20.4523 119.024 20.5165 119.076 20.5707C119.129 20.6249 119.192 20.6679 119.261 20.6971C119.331 20.7264 119.406 20.7413 119.481 20.741H139.706C139.805 20.7409 139.901 20.7148 139.987 20.6654C140.072 20.6161 140.143 20.5451 140.192 20.4597C140.241 20.3743 140.267 20.2774 140.267 20.1788C140.267 20.0802 140.241 19.9834 140.192 19.898Z" fill="#DDE4F0"/>
<path d="M129.593 16.261C129.34 16.2598 129.097 16.1643 128.911 15.9933C128.724 15.8222 128.609 15.5878 128.586 15.336L127.948 7.786C127.935 7.64625 127.952 7.50543 127.997 7.37251C128.042 7.2396 128.114 7.1175 128.209 7.01401C128.304 6.91052 128.419 6.8279 128.547 6.77143C128.676 6.71495 128.815 6.68586 128.955 6.686H130.23C130.37 6.68586 130.509 6.71495 130.638 6.77143C130.766 6.8279 130.881 6.91052 130.976 7.01401C131.071 7.1175 131.143 7.2396 131.188 7.37251C131.233 7.50543 131.249 7.64625 131.237 7.786L130.599 15.336C130.576 15.5876 130.46 15.8217 130.275 15.9927C130.089 16.1636 129.846 16.2593 129.593 16.261Z" fill="#DDE4F0"/>
<path d="M130.23 7.017H128.954C128.859 7.01694 128.766 7.03653 128.679 7.07455C128.592 7.11256 128.515 7.16817 128.451 7.23784C128.387 7.3075 128.338 7.38971 128.307 7.47926C128.277 7.5688 128.265 7.66372 128.273 7.758L128.911 15.308C128.924 15.4796 129.002 15.6399 129.128 15.7568C129.254 15.8738 129.42 15.9388 129.592 15.9388C129.764 15.9388 129.93 15.8738 130.056 15.7568C130.182 15.6399 130.26 15.4796 130.273 15.308L130.911 7.758C130.919 7.66372 130.907 7.5688 130.877 7.47926C130.846 7.38971 130.797 7.3075 130.733 7.23784C130.669 7.16817 130.592 7.11256 130.505 7.07455C130.418 7.03653 130.325 7.01694 130.23 7.017Z" fill="#CD2222"/>
<path d="M129.592 18.919C129.366 18.9188 129.145 18.8516 128.957 18.726C128.77 18.6004 128.623 18.4219 128.537 18.2132C128.45 18.0044 128.428 17.7747 128.472 17.5531C128.516 17.3315 128.625 17.128 128.784 16.9681C128.944 16.8083 129.148 16.6994 129.369 16.6551C129.591 16.6109 129.82 16.6333 130.029 16.7195C130.238 16.8058 130.417 16.952 130.542 17.1396C130.668 17.3273 130.736 17.5481 130.736 17.774C130.736 17.9244 130.707 18.0733 130.649 18.2123C130.592 18.3512 130.508 18.4775 130.402 18.5839C130.295 18.6902 130.169 18.7746 130.03 18.8321C129.891 18.8896 129.742 18.9191 129.592 18.919Z" fill="#DDE4F0"/>
<path d="M128.776 17.775C128.776 17.6136 128.824 17.4558 128.914 17.3217C129.003 17.1875 129.131 17.0829 129.28 17.0211C129.429 16.9594 129.593 16.9432 129.751 16.9747C129.909 17.0062 130.055 17.0839 130.169 17.198C130.283 17.3121 130.361 17.4575 130.392 17.6158C130.424 17.7741 130.408 17.9382 130.346 18.0873C130.284 18.2364 130.18 18.3638 130.045 18.4535C129.911 18.5431 129.753 18.591 129.592 18.591C129.376 18.591 129.168 18.505 129.015 18.352C128.862 18.199 128.776 17.9914 128.776 17.775Z" fill="#CD2222"/>
</g>
<defs>
<clipPath id="clip0_1_2696">
<rect width="194.135" height="150.536" fill="white"/>
</clipPath>
</defs>
</svg>
