<svg width="12" height="10" viewBox="0 0 12 10" fill="none" xmlns="http://www.w3.org/2000/svg">
<path d="M12 2.6V7.4C12 8.50456 9.31371 9.39999 6 9.39999C2.68629 9.39999 0 8.50456 0 7.4V2.6" fill="#FFDB2D"/>
<path d="M6 2.6V9.39999C9.31371 9.39999 12 8.50456 12 7.4V2.6H6Z" fill="#FFAF33"/>
<path d="M6 4.59999C9.31371 4.59999 12 3.70456 12 2.6C12 1.49543 9.31371 0.600006 6 0.600006C2.68629 0.600006 0 1.49543 0 2.6C0 3.70456 2.68629 4.59999 6 4.59999Z" fill="#FFEA8A"/>
<path d="M6 0.600006V4.60001C9.31371 4.60001 12 3.70458 12 2.60002C12 1.49546 9.31371 0.600006 6 0.600006Z" fill="#FFDB2D"/>
<path d="M6 6.39999C2.68629 6.39999 0 5.50456 0 4.4V6.31417C0.353602 6.54449 0.80475 6.76156 1.37789 6.95265C2.6303 7.3701 4.27177 7.60002 6 7.60002C7.72823 7.60002 9.36973 7.3701 10.6221 6.95265C11.1953 6.76161 11.6464 6.54449 12 6.31417V4.4C12 5.50456 9.31371 6.39999 6 6.39999Z" fill="#FFAF33"/>
<path d="M6 6.39999V7.59999C7.72823 7.59999 9.36973 7.37007 10.6221 6.95263C11.1953 6.76159 11.6464 6.54446 12 6.31414V4.4C12 5.50456 9.31371 6.39999 6 6.39999Z" fill="#FF9408"/>
</svg>
