<svg width="995" height="857" viewBox="0 0 995 857" fill="none" xmlns="http://www.w3.org/2000/svg">
<g clip-path="url(#clip0_1_1232)">
<path d="M84.428 331.109C74.8957 325.214 65.9838 318.371 57.828 310.684C57.2931 310.194 56.5868 309.934 55.8618 309.96C55.1368 309.987 54.4513 310.297 53.9533 310.825C53.4554 311.352 53.185 312.055 53.2007 312.78C53.2164 313.505 53.5168 314.195 54.037 314.701C62.4651 322.642 71.6734 329.711 81.522 335.801C82.1438 336.167 82.8841 336.275 83.5844 336.102C84.2848 335.928 84.8893 335.487 85.2686 334.874C85.6478 334.26 85.7716 333.522 85.6134 332.818C85.4551 332.114 85.0274 331.5 84.422 331.108M167.12 356.054C155.916 355.69 144.776 354.204 133.869 351.616C133.163 351.464 132.426 351.594 131.815 351.979C131.204 352.364 130.769 352.974 130.602 353.676C130.435 354.379 130.551 355.119 130.924 355.737C131.296 356.356 131.897 356.803 132.596 356.984C143.863 359.656 155.37 361.191 166.944 361.568H167.191C167.522 361.55 167.847 361.471 168.149 361.336C168.721 361.083 169.189 360.644 169.479 360.09C169.768 359.536 169.86 358.9 169.741 358.286C169.621 357.673 169.297 357.118 168.821 356.713C168.345 356.308 167.746 356.077 167.121 356.057M124.629 29.286C125.101 29.0764 125.504 28.7385 125.794 28.3108C126.083 27.8831 126.247 27.3828 126.265 26.8668C126.284 26.3508 126.158 25.8398 125.901 25.3921C125.644 24.9443 125.266 24.5777 124.811 24.334C124.492 24.1617 124.143 24.0544 123.782 24.0182C123.422 23.982 123.058 24.0176 122.711 24.123C115.853 26.1939 109.131 28.6887 102.583 31.593C98.6292 33.3483 94.7419 35.2496 90.929 37.293L90.712 37.409C90.0823 37.7632 89.6166 38.3502 89.4151 39.044C89.2135 39.7378 89.2922 40.483 89.6341 41.1195C89.976 41.7559 90.5539 42.2329 91.2437 42.4478C91.9335 42.6627 92.6801 42.5985 93.323 42.269L93.536 42.154C97.2281 40.1766 100.992 38.3364 104.82 36.637C111.16 33.8268 117.668 31.4118 124.306 29.406C124.416 29.3722 124.524 29.3321 124.629 29.286ZM50.83 74.803C51.3259 74.2694 51.5907 73.5613 51.5666 72.8333C51.5425 72.1052 51.2314 71.4162 50.7012 70.9166C50.171 70.4171 49.4647 70.1475 48.7365 70.1666C48.0083 70.1858 47.3172 70.4922 46.814 71.019C38.8761 79.4522 31.8102 88.6657 25.724 98.519C25.5282 98.8273 25.3956 99.1714 25.3338 99.5313C25.272 99.8912 25.2823 100.26 25.364 100.616C25.4458 100.972 25.5974 101.308 25.8101 101.605C26.0227 101.902 26.2922 102.153 26.6029 102.345C26.9136 102.537 27.2593 102.666 27.62 102.723C27.9806 102.78 28.3491 102.765 28.704 102.679C29.0589 102.593 29.3931 102.437 29.6873 102.221C29.9816 102.005 30.2299 101.732 30.418 101.419C36.3076 91.8818 43.1464 82.9644 50.83 74.803ZM5.516 184.116C5.87423 172.912 7.35497 161.772 9.936 150.863C10.1045 150.151 9.98329 149.401 9.59905 148.778C9.21482 148.156 8.59901 147.711 7.887 147.542C7.17512 147.375 6.42604 147.497 5.80379 147.881C5.18153 148.265 4.73681 148.88 4.567 149.591C1.9008 160.86 0.370824 172.368 0 183.942C-0.022642 184.673 0.245708 185.383 0.746125 185.916C1.24654 186.449 1.93812 186.762 2.669 186.786H2.918C3.6063 186.746 4.25485 186.451 4.73603 185.957C5.2172 185.463 5.49616 184.807 5.518 184.118M25.234 268.032C23.2566 264.34 21.4163 260.575 19.717 256.747C16.8961 250.384 14.4735 243.851 12.463 237.187C12.2522 236.487 11.7717 235.899 11.1273 235.552C10.4829 235.206 9.72744 235.13 9.027 235.341C8.32656 235.552 7.73857 236.032 7.39238 236.677C7.04619 237.321 6.97015 238.077 7.181 238.777C9.25628 245.662 11.7588 252.411 14.674 258.984C16.417 262.913 18.334 266.834 20.374 270.64L20.45 270.783C20.7004 271.246 21.0775 271.628 21.5371 271.884C21.9966 272.14 22.5197 272.26 23.045 272.23C23.374 272.212 23.697 272.135 23.998 272.001C24.062 271.972 24.125 271.942 24.187 271.909C24.8312 271.562 25.3115 270.974 25.5222 270.274C25.733 269.573 25.657 268.818 25.311 268.173L25.234 268.032ZM211.42 26.905C212.082 26.8673 212.708 26.5925 213.184 26.1308C213.66 25.6691 213.954 25.0515 214.012 24.391C214.07 23.7304 213.888 23.0711 213.499 22.5338C213.11 21.9965 212.541 21.6171 211.896 21.465C200.626 18.8021 189.117 17.2774 177.543 16.914C177.178 16.8985 176.814 16.9555 176.472 17.0817C176.129 17.2079 175.815 17.4009 175.548 17.6493C175.28 17.8978 175.065 18.1969 174.914 18.5293C174.763 18.8616 174.679 19.2206 174.668 19.5855C174.657 19.9504 174.718 20.3138 174.848 20.6549C174.978 20.9959 175.175 21.3077 175.427 21.5721C175.678 21.8366 175.98 22.0486 176.314 22.1956C176.648 22.3427 177.008 22.422 177.373 22.429C188.577 22.7818 199.718 24.2579 210.628 26.835C210.888 26.896 211.155 26.9196 211.421 26.905M251.116 336.33C247.424 338.307 243.659 340.148 239.831 341.847C233.443 344.682 226.884 347.114 220.192 349.127C219.495 349.342 218.911 349.823 218.566 350.466C218.221 351.109 218.144 351.861 218.35 352.561C218.454 352.908 218.625 353.232 218.854 353.513C219.084 353.793 219.366 354.026 219.685 354.198C220.004 354.37 220.354 354.477 220.715 354.513C221.076 354.549 221.44 354.514 221.787 354.409C228.699 352.329 235.474 349.818 242.073 346.891C246.019 345.14 249.899 343.243 253.705 341.205L253.805 341.154C254.123 340.984 254.404 340.753 254.631 340.473C254.859 340.193 255.028 339.871 255.129 339.525C255.231 339.179 255.262 338.816 255.221 338.458C255.181 338.1 255.069 337.754 254.893 337.439C254.536 336.796 253.94 336.32 253.235 336.113C252.53 335.905 251.771 335.984 251.123 336.331M341.978 191.861C341.247 191.838 340.536 192.106 340.003 192.606C339.469 193.106 339.156 193.798 339.132 194.529C338.762 205.733 337.27 216.872 334.678 227.778C334.51 228.49 334.631 229.239 335.014 229.862C335.398 230.485 336.013 230.93 336.724 231.1C336.986 231.162 337.255 231.186 337.524 231.171C337.855 231.151 338.18 231.071 338.484 230.937C338.873 230.766 339.217 230.507 339.489 230.18C339.76 229.853 339.952 229.467 340.049 229.053C342.728 217.787 344.269 206.281 344.649 194.708C344.672 193.977 344.405 193.266 343.905 192.733C343.405 192.199 342.713 191.885 341.982 191.861M333.567 143.089C333.938 143.288 334.349 143.399 334.77 143.415C335.19 143.431 335.609 143.351 335.994 143.181C336.607 142.908 337.099 142.421 337.379 141.811C337.659 141.202 337.707 140.511 337.515 139.868C335.43 132.928 332.912 126.126 329.974 119.502C328.22 115.549 326.321 111.663 324.279 107.851L324.121 107.558C323.775 106.914 323.187 106.433 322.486 106.222C321.786 106.011 321.03 106.087 320.386 106.433C319.741 106.779 319.261 107.367 319.05 108.068C318.839 108.768 318.915 109.524 319.261 110.168L319.414 110.455C321.391 114.147 323.232 117.912 324.931 121.74C327.773 128.152 330.212 134.736 332.231 141.453C332.334 141.801 332.505 142.124 332.734 142.405C332.963 142.686 333.245 142.919 333.565 143.09M286.709 67.69C286.971 67.9454 287.282 68.1461 287.623 68.2803C287.963 68.4144 288.328 68.4794 288.694 68.4715C289.06 68.4635 289.421 68.3827 289.755 68.2339C290.09 68.085 290.391 67.871 290.642 67.6044C290.893 67.3378 291.089 67.0238 291.217 66.6809C291.346 66.338 291.405 65.9729 291.391 65.607C291.376 65.241 291.29 64.8816 291.135 64.5495C290.981 64.2175 290.762 63.9195 290.491 63.673C282.055 55.7396 272.84 48.6785 262.985 42.597C262.677 42.4012 262.333 42.2686 261.973 42.2068C261.613 42.145 261.244 42.1553 260.888 42.237C260.532 42.3188 260.196 42.4704 259.899 42.6831C259.602 42.8957 259.351 43.1652 259.159 43.4759C258.967 43.7866 258.838 44.1323 258.781 44.493C258.724 44.8536 258.739 45.2221 258.825 45.577C258.911 45.9319 259.067 46.2661 259.283 46.5603C259.499 46.8546 259.772 47.1029 260.085 47.291C269.623 53.1771 278.542 60.0118 286.706 67.691M317.947 276.314C317.324 275.93 316.575 275.808 315.862 275.975C315.15 276.143 314.533 276.586 314.147 277.208C308.248 286.738 301.4 295.647 293.709 303.799C293.216 304.333 292.952 305.039 292.977 305.766C293.002 306.492 293.312 307.179 293.84 307.678C294.369 308.177 295.073 308.448 295.799 308.431C296.526 308.413 297.217 308.11 297.721 307.587C305.667 299.163 312.742 289.958 318.838 280.112C319.223 279.489 319.345 278.74 319.177 278.027C319.009 277.315 318.566 276.698 317.944 276.312" fill="#AC5E9F"/>
<path d="M881.181 693.733C878.59 693.733 876.057 692.965 873.903 691.525C871.749 690.086 870.07 688.04 869.078 685.646C868.087 683.252 867.827 680.619 868.333 678.077C868.838 675.536 870.086 673.202 871.918 671.37C873.75 669.538 876.084 668.29 878.625 667.785C881.166 667.279 883.8 667.539 886.194 668.53C888.588 669.522 890.634 671.201 892.073 673.355C893.513 675.509 894.281 678.042 894.281 680.633C894.276 684.106 892.894 687.435 890.438 689.89C887.983 692.346 884.654 693.728 881.181 693.733ZM881.181 672.9C879.652 672.9 878.158 673.354 876.887 674.203C875.617 675.052 874.626 676.259 874.041 677.672C873.456 679.084 873.303 680.638 873.602 682.137C873.9 683.636 874.636 685.013 875.717 686.094C876.798 687.175 878.175 687.911 879.674 688.209C881.173 688.508 882.727 688.355 884.139 687.77C885.552 687.185 886.759 686.195 887.608 684.924C888.457 683.653 888.911 682.159 888.911 680.63C888.908 678.581 888.093 676.616 886.644 675.167C885.195 673.718 883.23 672.903 881.181 672.9ZM132.182 736.385H124.134V725.037C124.134 724.431 123.893 723.851 123.465 723.423C123.037 722.995 122.456 722.754 121.851 722.754C121.246 722.754 120.665 722.995 120.237 723.423C119.809 723.851 119.568 724.431 119.568 725.037V736.385H111.519C110.922 736.397 110.353 736.644 109.935 737.07C109.517 737.497 109.283 738.071 109.283 738.669C109.283 739.266 109.517 739.84 109.935 740.267C110.353 740.693 110.922 740.939 111.519 740.952H119.567V752.3C119.567 752.906 119.808 753.486 120.236 753.914C120.664 754.342 121.245 754.583 121.85 754.583C122.455 754.583 123.036 754.342 123.464 753.914C123.892 753.486 124.133 752.906 124.133 752.3V740.952H132.181C132.778 740.939 133.347 740.693 133.765 740.267C134.183 739.84 134.417 739.266 134.417 738.669C134.417 738.071 134.183 737.497 133.765 737.07C133.347 736.644 132.778 736.397 132.181 736.385M863.832 96.441H851.75V79.405C851.75 78.4961 851.389 77.6244 850.746 76.9817C850.104 76.3391 849.232 75.978 848.323 75.978C847.414 75.978 846.542 76.3391 845.9 76.9817C845.257 77.6244 844.896 78.4961 844.896 79.405V96.441H832.82C832.365 96.4332 831.913 96.5161 831.49 96.6849C831.068 96.8537 830.683 97.1049 830.358 97.4239C830.034 97.743 829.776 98.1234 829.6 98.5432C829.424 98.9629 829.333 99.4134 829.333 99.8685C829.333 100.324 829.424 100.774 829.6 101.194C829.776 101.614 830.034 101.994 830.358 102.313C830.683 102.632 831.068 102.883 831.49 103.052C831.913 103.221 832.365 103.304 832.82 103.296H844.899V120.328C844.899 121.237 845.26 122.109 845.903 122.751C846.545 123.394 847.417 123.755 848.326 123.755C849.235 123.755 850.107 123.394 850.749 122.751C851.392 122.109 851.753 121.237 851.753 120.328V103.292H863.832C864.731 103.277 865.588 102.909 866.218 102.268C866.848 101.627 867.201 100.764 867.201 99.8645C867.201 98.9655 866.848 98.1024 866.218 97.4613C865.588 96.8202 864.731 96.4524 863.832 96.437" fill="#CD2222"/>
<path d="M539.158 297.458C530.109 302.853 521.35 308.721 512.918 315.037C512.48 315.365 512.159 315.824 512.001 316.347C511.843 316.871 511.856 317.431 512.039 317.946C512.222 318.462 512.565 318.905 513.017 319.212C513.47 319.518 514.009 319.672 514.555 319.651C514.64 319.647 514.725 319.64 514.81 319.629C515.239 319.567 515.645 319.4 515.993 319.141C524.28 312.933 532.888 307.166 541.782 301.864C542.366 301.516 542.788 300.95 542.956 300.291C543.123 299.632 543.021 298.933 542.673 298.349C542.325 297.765 541.759 297.343 541.1 297.176C540.441 297.008 539.742 297.11 539.158 297.458ZM529.681 801.98C521.057 796.251 512.737 790.075 504.755 783.48C504.23 783.052 503.556 782.849 502.882 782.915C502.208 782.982 501.587 783.312 501.155 783.834C500.723 784.356 500.515 785.028 500.576 785.703C500.637 786.378 500.962 787.001 501.481 787.437C509.601 794.146 518.065 800.427 526.839 806.254C527.287 806.551 527.816 806.7 528.353 806.679C528.438 806.675 528.523 806.668 528.608 806.657C529.124 806.585 529.605 806.358 529.989 806.006C530.372 805.654 530.64 805.194 530.755 804.686C530.871 804.179 530.83 803.648 530.636 803.165C530.443 802.681 530.108 802.268 529.674 801.98M616.504 265.753C616.213 265.586 615.891 265.478 615.558 265.436C615.225 265.394 614.887 265.418 614.563 265.508C604.398 268.278 594.381 271.568 584.553 275.365C583.988 275.584 583.518 275.996 583.228 276.529C582.938 277.061 582.846 277.679 582.968 278.273C583.09 278.867 583.418 279.398 583.895 279.773C584.371 280.148 584.965 280.342 585.571 280.32C585.657 280.32 585.744 280.309 585.83 280.297C586.026 280.269 586.218 280.219 586.403 280.148C596.064 276.414 605.911 273.181 615.905 270.462C616.394 270.328 616.832 270.052 617.164 269.669C617.496 269.286 617.707 268.813 617.77 268.31C617.834 267.807 617.747 267.297 617.521 266.843C617.295 266.39 616.939 266.014 616.499 265.762M602.168 837.022C592.319 833.817 582.643 830.101 573.181 825.889C572.873 825.752 572.542 825.677 572.205 825.668C571.869 825.659 571.534 825.717 571.219 825.838C570.905 825.958 570.617 826.14 570.373 826.371C570.129 826.603 569.932 826.881 569.795 827.188C569.659 827.496 569.583 827.828 569.575 828.164C569.566 828.501 569.623 828.836 569.744 829.15C569.865 829.465 570.046 829.752 570.278 829.996C570.51 830.241 570.787 830.437 571.095 830.574C580.719 834.858 590.561 838.638 600.579 841.897C600.866 841.992 601.167 842.035 601.469 842.023C601.555 842.021 601.64 842.014 601.725 842.001C602.201 841.933 602.649 841.734 603.018 841.425C603.387 841.116 603.662 840.71 603.812 840.253C604.022 839.606 603.967 838.903 603.659 838.297C603.35 837.691 602.814 837.233 602.168 837.022ZM477.011 347.822C476.674 347.829 476.342 347.903 476.034 348.04C475.726 348.178 475.449 348.376 475.219 348.622C467.976 356.266 461.138 364.284 454.732 372.643C454.437 373.029 454.257 373.491 454.214 373.976C454.171 374.46 454.267 374.947 454.49 375.379C454.713 375.811 455.055 376.17 455.474 376.416C455.894 376.661 456.375 376.782 456.861 376.765C456.947 376.765 457.034 376.754 457.121 376.743C457.79 376.652 458.395 376.299 458.804 375.762C465.101 367.546 471.822 359.666 478.942 352.152C479.291 351.784 479.523 351.32 479.608 350.821C479.694 350.321 479.629 349.807 479.422 349.343C479.216 348.88 478.877 348.489 478.448 348.218C478.019 347.948 477.519 347.811 477.012 347.824M430.945 414.087C430.344 413.769 429.641 413.703 428.992 413.903C428.342 414.103 427.798 414.553 427.48 415.154C422.557 424.467 418.121 434.03 414.191 443.804C414.031 444.201 413.973 444.631 414.023 445.056C414.072 445.481 414.227 445.887 414.473 446.237C414.72 446.587 415.05 446.869 415.433 447.059C415.817 447.248 416.242 447.339 416.669 447.322C416.754 447.32 416.838 447.313 416.922 447.3C417.369 447.238 417.792 447.058 418.149 446.78C418.505 446.502 418.781 446.135 418.95 445.716C422.812 436.107 427.173 426.706 432.014 417.551C432.332 416.95 432.398 416.247 432.197 415.597C431.997 414.947 431.546 414.403 430.945 414.085M400.428 596.097C399.385 588.576 398.632 581.018 398.17 573.439C398.127 572.764 397.82 572.133 397.314 571.683C396.808 571.234 396.146 571.002 395.47 571.039C395.135 571.053 394.806 571.134 394.503 571.277C394.199 571.42 393.928 571.624 393.705 571.874C393.477 572.129 393.302 572.426 393.19 572.749C393.077 573.072 393.029 573.414 393.049 573.755C393.689 584.271 394.883 594.745 396.625 605.135C396.725 605.75 397.046 606.307 397.529 606.701C398.011 607.095 398.622 607.299 399.244 607.274C399.33 607.274 399.418 607.263 399.507 607.251C399.533 607.251 399.559 607.244 399.575 607.24C400.245 607.126 400.842 606.752 401.237 606.198C401.631 605.645 401.791 604.958 401.68 604.288C401.223 601.565 400.805 598.836 400.425 596.102M404.017 491.237C403.743 490.811 403.348 490.475 402.883 490.273C402.418 490.071 401.904 490.011 401.405 490.101C400.906 490.191 400.445 490.427 400.08 490.779C399.715 491.13 399.462 491.583 399.354 492.078C397.115 502.376 395.419 512.785 394.272 523.261C394.235 523.596 394.265 523.934 394.36 524.258C394.454 524.581 394.611 524.882 394.822 525.145C395.033 525.407 395.294 525.626 395.589 525.787C395.885 525.949 396.209 526.051 396.544 526.087C396.671 526.1 396.798 526.104 396.925 526.101C397.009 526.099 397.092 526.092 397.175 526.079C397.742 526.002 398.266 525.737 398.665 525.327C399.064 524.917 399.314 524.386 399.375 523.817C400.503 513.521 402.17 503.291 404.37 493.169C404.443 492.84 404.449 492.5 404.389 492.168C404.33 491.837 404.205 491.52 404.022 491.237M681.416 851.248C671.066 850.827 660.745 849.861 650.496 848.355C649.823 848.256 649.139 848.428 648.593 848.834C648.047 849.24 647.685 849.846 647.586 850.519C647.487 851.192 647.659 851.876 648.065 852.422C648.471 852.968 649.077 853.33 649.75 853.429C660.177 854.962 670.678 855.945 681.208 856.373H681.408C681.493 856.369 681.578 856.362 681.663 856.351C682.296 856.261 682.872 855.938 683.279 855.445C683.686 854.952 683.894 854.325 683.863 853.687C683.831 853.049 683.563 852.445 683.11 851.994C682.657 851.544 682.051 851.279 681.413 851.251M450.293 724.213C450.101 723.936 449.857 723.7 449.574 723.517C449.291 723.335 448.975 723.21 448.643 723.15C448.312 723.09 447.972 723.096 447.643 723.167C447.314 723.238 447.002 723.373 446.725 723.565C446.448 723.757 446.212 724.001 446.029 724.284C445.847 724.567 445.722 724.883 445.662 725.215C445.602 725.546 445.608 725.886 445.679 726.215C445.75 726.544 445.885 726.856 446.077 727.133C452.079 735.792 458.533 744.129 465.412 752.109C465.663 752.401 465.976 752.633 466.329 752.787C466.682 752.941 467.065 753.013 467.45 752.998C467.535 752.998 467.621 752.987 467.708 752.975C468.164 752.911 468.595 752.726 468.955 752.438C469.315 752.15 469.591 751.77 469.753 751.339C469.916 750.908 469.959 750.441 469.879 749.987C469.798 749.533 469.597 749.109 469.296 748.76C462.535 740.918 456.193 732.724 450.296 724.213M413.944 652.395C413.722 651.752 413.254 651.224 412.643 650.926C412.031 650.628 411.326 650.586 410.684 650.807C410.041 651.029 409.512 651.497 409.214 652.109C408.917 652.72 408.874 653.425 409.096 654.068C412.534 664.024 416.486 673.795 420.938 683.341C421.149 683.799 421.492 684.184 421.922 684.447C422.352 684.71 422.85 684.84 423.354 684.82C423.44 684.82 423.527 684.809 423.614 684.797C424.012 684.742 424.391 684.594 424.72 684.365C425.05 684.137 425.322 683.834 425.514 683.482C425.706 683.129 425.812 682.736 425.824 682.335C425.837 681.934 425.755 681.536 425.585 681.172C421.209 671.788 417.323 662.182 413.944 652.395ZM901.076 766.213C893.716 773.489 885.979 780.372 877.896 786.834C877.474 787.171 877.17 787.633 877.026 788.153C876.882 788.673 876.906 789.226 877.094 789.732C877.282 790.238 877.626 790.671 878.075 790.971C878.524 791.27 879.057 791.42 879.596 791.399C879.68 791.396 879.764 791.388 879.847 791.377C880.303 791.312 880.733 791.127 881.094 790.841C889.317 784.265 897.19 777.261 904.679 769.86C905.163 769.382 905.436 768.731 905.44 768.051C905.444 767.371 905.177 766.717 904.698 766.234C904.22 765.75 903.569 765.476 902.889 765.473C902.209 765.469 901.556 765.736 901.072 766.214M961.507 419.474C956.743 410.078 951.488 400.939 945.763 392.096C945.587 391.799 945.352 391.542 945.074 391.338C944.795 391.134 944.479 390.988 944.143 390.91C943.807 390.831 943.459 390.821 943.119 390.881C942.779 390.94 942.454 391.067 942.165 391.255C941.875 391.443 941.627 391.687 941.434 391.973C941.241 392.259 941.107 392.581 941.042 392.92C940.976 393.258 940.98 393.607 941.052 393.944C941.125 394.282 941.264 394.601 941.463 394.883C947.088 403.574 952.252 412.555 956.933 421.789C957.173 422.267 957.556 422.657 958.03 422.905C958.503 423.153 959.043 423.245 959.572 423.17C959.853 423.132 960.126 423.046 960.378 422.917C960.984 422.608 961.442 422.072 961.654 421.426C961.865 420.78 961.812 420.077 961.506 419.47M983.264 625.8C982.605 625.636 981.907 625.74 981.324 626.089C980.742 626.437 980.32 627.003 980.153 627.661C977.621 637.704 974.568 647.609 971.005 657.334C970.86 657.73 970.815 658.155 970.873 658.572C970.931 658.989 971.092 659.386 971.34 659.727C971.588 660.067 971.916 660.341 972.295 660.525C972.674 660.708 973.093 660.796 973.514 660.779C973.598 660.779 973.682 660.768 973.764 660.757C974.225 660.693 974.659 660.504 975.021 660.212C975.383 659.92 975.659 659.536 975.82 659.099C979.443 649.205 982.547 639.129 985.12 628.912C985.286 628.253 985.183 627.554 984.834 626.971C984.485 626.387 983.918 625.966 983.259 625.8M991.43 544.993H991.419C990.743 545.02 990.105 545.311 989.643 545.804C989.18 546.297 988.93 546.952 988.946 547.628C989.236 557.983 988.978 568.346 988.174 578.674C988.147 579.01 988.187 579.348 988.291 579.668C988.395 579.989 988.562 580.286 988.781 580.542C989 580.798 989.267 581.008 989.568 581.16C989.868 581.313 990.196 581.404 990.532 581.43C990.632 581.437 990.732 581.439 990.832 581.436C990.917 581.436 991.002 581.425 991.086 581.414C991.663 581.33 992.195 581.053 992.595 580.628C992.994 580.203 993.238 579.654 993.286 579.073C994.103 568.564 994.365 558.019 994.072 547.483C994.051 546.803 993.762 546.159 993.267 545.692C992.772 545.225 992.112 544.973 991.432 544.992M695.798 254.94C685.261 254.86 674.727 255.335 664.24 256.363C663.905 256.391 663.58 256.486 663.282 256.642C662.984 256.797 662.721 257.011 662.507 257.27C662.19 257.651 661.991 258.116 661.933 258.609C661.874 259.101 661.96 259.6 662.179 260.045C662.397 260.49 662.74 260.862 663.166 261.116C663.592 261.37 664.082 261.496 664.577 261.478C664.627 261.477 664.678 261.473 664.731 261.467C675.042 260.456 685.399 259.988 695.759 260.067C695.884 260.069 696.008 260.061 696.132 260.044C696.767 259.947 697.342 259.616 697.744 259.115C698.146 258.615 698.346 257.981 698.304 257.341C698.262 256.7 697.981 256.099 697.517 255.655C697.053 255.211 696.44 254.957 695.798 254.944M986.234 500.347C986.285 500.34 986.334 500.331 986.382 500.322C987.048 500.187 987.633 499.794 988.01 499.229C988.388 498.664 988.525 497.973 988.394 497.306C986.329 486.973 983.731 476.755 980.612 466.69L980.479 466.263C980.383 465.937 980.222 465.634 980.007 465.37C979.793 465.107 979.528 464.889 979.228 464.728C978.928 464.568 978.599 464.469 978.261 464.437C977.923 464.405 977.581 464.441 977.257 464.542C976.932 464.642 976.631 464.807 976.37 465.025C976.11 465.244 975.895 465.512 975.739 465.813C975.583 466.115 975.489 466.445 975.461 466.784C975.434 467.123 975.474 467.464 975.579 467.787L975.711 468.212C978.779 478.107 981.332 488.153 983.361 498.312C983.481 498.909 983.81 499.444 984.288 499.822C984.766 500.199 985.363 500.395 985.972 500.373C986.057 500.371 986.143 500.364 986.227 500.351M953.583 701.395C952.992 701.059 952.291 700.971 951.635 701.15C950.979 701.33 950.421 701.762 950.083 702.352C944.95 711.344 939.352 720.063 933.311 728.473C933.031 728.863 932.866 729.323 932.835 729.802C932.804 730.28 932.908 730.758 933.134 731.181C933.361 731.604 933.702 731.954 934.118 732.193C934.534 732.432 935.009 732.549 935.488 732.532C935.573 732.532 935.659 732.521 935.746 732.509C936.09 732.461 936.42 732.344 936.717 732.164C937.014 731.985 937.272 731.748 937.475 731.466C943.618 722.91 949.313 714.041 954.536 704.894C954.703 704.601 954.811 704.279 954.853 703.944C954.896 703.61 954.872 703.271 954.783 702.946C954.694 702.621 954.542 702.316 954.335 702.05C954.129 701.784 953.872 701.561 953.579 701.394M892.261 330.122C892.008 329.9 891.714 329.729 891.395 329.62C891.076 329.512 890.739 329.467 890.403 329.488C890.067 329.51 889.739 329.598 889.437 329.746C889.134 329.895 888.864 330.101 888.642 330.354C888.42 330.607 888.249 330.901 888.141 331.22C888.032 331.538 887.987 331.875 888.008 332.212C888.03 332.548 888.118 332.876 888.266 333.178C888.415 333.481 888.621 333.751 888.874 333.973C896.644 340.811 904.05 348.052 911.061 355.666C911.341 355.971 911.692 356.204 912.082 356.343C912.473 356.483 912.892 356.525 913.302 356.466C913.765 356.401 914.202 356.211 914.565 355.916C914.928 355.621 915.203 355.232 915.361 354.792C915.518 354.351 915.553 353.876 915.46 353.418C915.367 352.96 915.151 352.535 914.834 352.191C907.7 344.446 900.165 337.079 892.261 330.121M761.548 843.445C751.465 845.846 741.263 847.717 730.984 849.051C730.336 849.145 729.748 849.484 729.342 849.998C728.936 850.511 728.742 851.161 728.799 851.814C728.857 852.466 729.162 853.072 729.652 853.506C730.142 853.941 730.779 854.172 731.434 854.151C731.512 854.149 731.589 854.142 731.666 854.131C732.569 854.014 733.473 853.892 734.378 853.767C743.911 852.441 753.374 850.661 762.737 848.431C763.065 848.353 763.374 848.211 763.646 848.014C763.919 847.816 764.15 847.567 764.327 847.28C764.503 846.994 764.622 846.675 764.675 846.342C764.728 846.01 764.716 845.67 764.638 845.342C764.56 845.015 764.418 844.706 764.22 844.433C764.023 844.16 763.774 843.929 763.487 843.753C763.2 843.576 762.881 843.458 762.549 843.405C762.216 843.351 761.877 843.364 761.549 843.442M776.848 266.794C766.727 263.86 756.459 261.46 746.087 259.603C745.754 259.539 745.411 259.542 745.079 259.612C744.747 259.682 744.432 259.817 744.152 260.009C743.872 260.202 743.634 260.448 743.45 260.733C743.266 261.018 743.141 261.337 743.081 261.671C743.022 262.005 743.029 262.348 743.103 262.679C743.177 263.011 743.316 263.324 743.512 263.601C743.708 263.878 743.956 264.114 744.244 264.294C744.532 264.474 744.852 264.596 745.187 264.651C755.382 266.477 765.475 268.836 775.423 271.72C775.686 271.796 775.96 271.83 776.234 271.82C776.319 271.816 776.404 271.809 776.489 271.798C777.069 271.715 777.603 271.437 778.002 271.008C778.402 270.58 778.643 270.028 778.685 269.444C778.728 268.86 778.569 268.279 778.235 267.797C777.901 267.316 777.413 266.963 776.851 266.798M851.689 300.061C842.729 294.521 833.488 289.451 824.002 284.871C823.698 284.721 823.368 284.633 823.03 284.611C822.692 284.59 822.353 284.636 822.033 284.746C821.713 284.856 821.418 285.028 821.165 285.253C820.912 285.478 820.705 285.751 820.558 286.056C820.411 286.361 820.326 286.692 820.307 287.03C820.289 287.368 820.337 287.706 820.45 288.026C820.563 288.345 820.738 288.638 820.965 288.89C821.192 289.141 821.467 289.345 821.773 289.489C831.098 293.992 840.182 298.976 848.99 304.422C849.425 304.689 849.928 304.821 850.438 304.804C850.523 304.8 850.607 304.792 850.691 304.781C851.214 304.709 851.702 304.477 852.088 304.118C852.474 303.759 852.74 303.289 852.85 302.772C852.959 302.256 852.906 301.719 852.699 301.233C852.492 300.748 852.14 300.339 851.691 300.061M836.644 814.425C827.581 819.431 818.261 823.958 808.723 827.988C808.15 828.23 807.684 828.672 807.413 829.231C807.141 829.791 807.083 830.431 807.248 831.03C807.413 831.63 807.791 832.149 808.311 832.491C808.831 832.833 809.457 832.974 810.073 832.888C810.295 832.857 810.512 832.797 810.718 832.711C820.421 828.61 829.903 824.003 839.125 818.911C839.706 818.575 840.132 818.024 840.312 817.377C840.491 816.73 840.41 816.038 840.085 815.45C839.76 814.863 839.218 814.426 838.574 814.234C837.931 814.041 837.238 814.109 836.644 814.422" fill="#AC5E9F"/>
<path d="M477.397 401.247H512.2V751.51H477.397V401.247Z" fill="#CD2222"/>
<path d="M477.259 401.378H512.2V413.488H477.259V401.378Z" fill="#551948"/>
<path d="M698.554 118.013V284.908L580.542 402.92H413.647L295.635 284.908V118.013L413.647 0H580.542L698.554 118.013Z" fill="#CD2222"/>
<path d="M698.554 118.013V284.908L580.542 402.92H413.647L334.686 323.959C631.448 367.69 634.526 53.984 634.526 53.984L698.554 118.013Z" fill="#551948"/>
<path d="M698.554 201.46C698.554 201.46 641.82 412.118 413.647 402.919H580.542L698.554 284.908V201.46Z" fill="#551948"/>
<path d="M678.973 126.123V276.796L572.431 383.339H421.758L315.216 276.796V126.123L421.758 19.581H572.431L678.973 126.123Z" stroke="white" stroke-width="12" stroke-miterlimit="10"/>
<path d="M498.227 401.247H512.201V751.51H498.227V401.247Z" fill="#551948"/>
<path d="M444.427 204.309C444.427 212.9 442.876 220.324 439.773 226.581C436.671 232.839 432.416 237.665 427.006 241.059C421.597 244.453 415.419 246.15 408.472 246.15C401.525 246.15 395.347 244.453 389.938 241.059C384.529 237.665 380.273 232.839 377.171 226.581C374.069 220.324 372.518 212.9 372.518 204.309C372.518 195.718 374.069 188.294 377.171 182.036C380.273 175.778 384.529 170.953 389.938 167.559C395.347 164.165 401.525 162.468 408.472 162.468C415.419 162.468 421.597 164.165 427.006 167.559C432.416 170.953 436.671 175.778 439.773 182.036C442.876 188.294 444.427 195.718 444.427 204.309ZM434.881 204.309C434.881 197.256 433.702 191.303 431.342 186.451C429.008 181.598 425.84 177.926 421.836 175.434C417.859 172.941 413.404 171.695 408.472 171.695C403.541 171.695 399.073 172.941 395.069 175.434C391.092 177.926 387.923 181.598 385.563 186.451C383.23 191.303 382.063 197.256 382.063 204.309C382.063 211.362 383.23 217.314 385.563 222.167C387.923 227.019 391.092 230.691 395.069 233.184C399.073 235.676 403.541 236.922 408.472 236.922C413.404 236.922 417.859 235.676 421.836 233.184C425.84 230.691 429.008 227.019 431.342 222.167C433.702 217.314 434.881 211.362 434.881 204.309ZM461.012 245.036V163.581H488.535C494.925 163.581 500.148 164.735 504.205 167.042C508.289 169.322 511.311 172.411 513.273 176.309C515.236 180.206 516.217 184.555 516.217 189.354C516.217 194.153 515.236 198.515 513.273 202.439C511.338 206.364 508.342 209.492 504.285 211.826C500.228 214.133 495.031 215.286 488.694 215.286H468.967V206.536H488.376C492.751 206.536 496.264 205.78 498.916 204.269C501.567 202.758 503.489 200.716 504.683 198.144C505.902 195.545 506.512 192.616 506.512 189.354C506.512 186.093 505.902 183.176 504.683 180.604C503.489 178.032 501.554 176.017 498.876 174.559C496.198 173.074 492.645 172.331 488.217 172.331H470.876V245.036H461.012ZM532.106 245.036V163.581H559.629C566.019 163.581 571.242 164.735 575.299 167.042C579.382 169.322 582.405 172.411 584.367 176.309C586.329 180.206 587.31 184.555 587.31 189.354C587.31 194.153 586.329 198.515 584.367 202.439C582.432 206.364 579.435 209.492 575.379 211.826C571.322 214.133 566.125 215.286 559.788 215.286H540.06V206.536H559.47C563.845 206.536 567.358 205.78 570.009 204.269C572.661 202.758 574.583 200.716 575.776 198.144C576.996 195.545 577.606 192.616 577.606 189.354C577.606 186.093 576.996 183.176 575.776 180.604C574.583 178.032 572.648 176.017 569.97 174.559C567.291 173.074 563.738 172.331 559.31 172.331H541.97V245.036H532.106ZM647.745 183.945C647.268 179.915 645.332 176.786 641.938 174.559C638.544 172.331 634.381 171.218 629.45 171.218C625.844 171.218 622.688 171.801 619.984 172.968C617.306 174.134 615.211 175.739 613.7 177.78C612.215 179.822 611.472 182.142 611.472 184.741C611.472 186.915 611.989 188.784 613.023 190.348C614.084 191.886 615.436 193.172 617.08 194.206C618.724 195.214 620.448 196.049 622.251 196.712C624.054 197.348 625.711 197.866 627.222 198.263L635.495 200.491C637.616 201.047 639.976 201.816 642.575 202.797C645.2 203.778 647.705 205.117 650.092 206.814C652.505 208.485 654.493 210.633 656.058 213.258C657.622 215.883 658.404 219.104 658.404 222.922C658.404 227.324 657.251 231.301 654.944 234.854C652.664 238.407 649.323 241.231 644.921 243.326C640.546 245.42 635.23 246.468 628.972 246.468C623.139 246.468 618.088 245.527 613.819 243.644C609.577 241.761 606.236 239.136 603.796 235.769C601.383 232.402 600.018 228.491 599.7 224.036H609.881C610.147 227.112 611.181 229.657 612.984 231.672C614.813 233.661 617.12 235.146 619.904 236.127C622.715 237.081 625.738 237.559 628.972 237.559C632.738 237.559 636.118 236.949 639.114 235.729C642.111 234.483 644.484 232.759 646.234 230.559C647.984 228.331 648.859 225.733 648.859 222.763C648.859 220.059 648.103 217.858 646.592 216.161C645.08 214.464 643.092 213.085 640.626 212.025C638.16 210.964 635.495 210.036 632.631 209.241L622.609 206.377C616.245 204.547 611.207 201.936 607.495 198.542C603.783 195.148 601.927 190.706 601.927 185.218C601.927 180.657 603.16 176.68 605.626 173.286C608.118 169.866 611.459 167.214 615.648 165.331C619.864 163.422 624.571 162.468 629.768 162.468C635.018 162.468 639.684 163.409 643.768 165.292C647.851 167.148 651.086 169.693 653.472 172.928C655.885 176.163 657.158 179.835 657.291 183.945H647.745Z" fill="white"/>
<path d="M754.064 763.361H234.371C232.82 763.361 231.332 762.744 230.235 761.648C229.139 760.551 228.522 759.063 228.522 757.512V756.278C228.522 754.727 229.139 753.239 230.235 752.142C231.332 751.046 232.82 750.429 234.371 750.429H754.064C755.615 750.429 757.103 751.046 758.2 752.142C759.296 753.239 759.913 754.727 759.913 756.278V757.512C759.913 759.063 759.296 760.551 758.2 761.648C757.103 762.744 755.615 763.361 754.064 763.361Z" fill="#3F1239"/>
<path d="M244.638 763.361H160.838C159.123 763.361 157.478 762.68 156.266 761.467C155.053 760.255 154.372 758.61 154.372 756.895C154.372 755.18 155.053 753.535 156.266 752.323C157.478 751.11 159.123 750.429 160.838 750.429H244.638C246.353 750.429 247.998 751.11 249.21 752.323C250.423 753.535 251.104 755.18 251.104 756.895C251.104 758.61 250.423 760.255 249.21 761.467C247.998 762.68 246.353 763.361 244.638 763.361ZM122.756 763.361H33.469C31.9177 763.361 30.4298 762.745 29.3328 761.648C28.2357 760.551 27.6193 759.063 27.619 757.512V756.278C27.6193 754.727 28.2357 753.239 29.3328 752.142C30.4298 751.045 31.9177 750.429 33.469 750.429H122.756C124.307 750.429 125.795 751.046 126.892 752.142C127.988 753.239 128.605 754.727 128.605 756.278V757.512C128.605 759.063 127.988 760.551 126.892 761.648C125.795 762.744 124.307 763.361 122.756 763.361ZM866.034 763.361H792.551C791 763.361 789.512 762.744 788.415 761.648C787.319 760.551 786.702 759.063 786.702 757.512V756.278C786.702 754.727 787.319 753.239 788.415 752.142C789.512 751.046 791 750.429 792.551 750.429H866.034C867.585 750.429 869.073 751.046 870.17 752.142C871.266 753.239 871.883 754.727 871.883 756.278V757.512C871.883 759.063 871.266 760.551 870.17 761.648C869.073 762.744 867.585 763.361 866.034 763.361ZM960.103 763.361H905.195C903.48 763.361 901.835 762.68 900.623 761.467C899.41 760.255 898.729 758.61 898.729 756.895C898.729 755.18 899.41 753.535 900.623 752.323C901.835 751.11 903.48 750.429 905.195 750.429H960.103C961.818 750.429 963.463 751.11 964.675 752.323C965.888 753.535 966.569 755.18 966.569 756.895C966.569 758.61 965.888 760.255 964.675 761.467C963.463 762.68 961.818 763.361 960.103 763.361Z" fill="#3F1239"/>
<path d="M426.231 724.991H243.141L246.472 712.931L252.978 689.381L256.918 675.121L262.726 654.098L273.926 613.572L279.734 592.549L320.565 444.749H348.812L363.777 498.915L389.64 592.548L395.448 613.571L406.648 654.097L412.456 675.12L422.902 712.93L426.231 724.991Z" fill="#CD2222"/>
<path d="M426.23 725.85H243.14L246.471 713.79L252.977 690.24C380.562 682.703 363.777 499.776 363.777 499.776L422.903 713.79L426.23 725.85Z" fill="#7B2167"/>
<path d="M205.678 725.85H463.691V750.381H205.678V725.85Z" fill="#CD2222"/>
<path d="M426.231 725.851H243.141L246.472 713.791H422.9L426.231 725.851Z" fill="#3F1239"/>
<path d="M395.448 614.431C395.448 614.431 391.612 695.348 298.648 713.857L422.902 713.79L395.448 614.431Z" fill="#551948"/>
<path d="M395.449 614.43H273.922L279.73 593.407H389.64L395.449 614.43ZM412.454 675.981H256.917L262.725 654.958H406.645L412.454 675.981Z" fill="white"/>
<path d="M404.012 725.85C404.012 725.85 369.812 751.669 243.14 750.381H463.693V725.85H404.012Z" fill="#551948"/>
</g>
<defs>
<clipPath id="clip0_1_1232">
<rect width="994.188" height="856.374" fill="white"/>
</clipPath>
</defs>
</svg>
