<svg width="26" height="26" viewBox="0 0 26 26" fill="none" xmlns="http://www.w3.org/2000/svg">
<g clip-path="url(#clip0_3_69)">
<path d="M10.0208 20.8542V20.3125H5.95828C5.31207 20.3116 4.69259 20.0546 4.23565 19.5976C3.77872 19.1407 3.52164 18.5212 3.52078 17.875V17.4612C3.51865 16.9458 3.66119 16.4402 3.93218 16.0018C4.20317 15.5634 4.59174 15.2099 5.05369 14.9814C5.26033 14.8782 5.43705 14.7237 5.56697 14.5327C5.69689 14.3417 5.77567 14.1206 5.79578 13.8905L6.27894 8.57133C6.37013 7.56766 6.68504 6.59717 7.20053 5.73117C7.71602 4.86518 8.41899 4.12569 9.2578 3.56704C10.0966 3.00839 11.0499 2.64478 12.0477 2.50293C13.0455 2.36108 14.0623 2.44459 15.0236 2.74733C14.7265 3.20927 14.495 3.71022 14.3357 4.23583C13.8999 4.12031 13.4508 4.06205 12.9999 4.0625C11.7204 4.0565 10.4856 4.53244 9.5411 5.39563C8.59662 6.25882 8.01174 7.44596 7.90286 8.72083L7.42078 14.0378C7.37595 14.544 7.20189 15.0302 6.91526 15.4498C6.62864 15.8694 6.23906 16.2083 5.78386 16.4342C5.59195 16.5286 5.43041 16.6751 5.31761 16.8568C5.2048 17.0386 5.14527 17.2483 5.14578 17.4622V17.8761C5.14635 18.0913 5.23217 18.2975 5.38445 18.4496C5.53673 18.6017 5.74306 18.6872 5.95828 18.6875H20.0416C20.257 18.6872 20.4635 18.6015 20.6158 18.4492C20.7681 18.2969 20.8538 18.0904 20.8541 17.875V17.4612C20.855 17.2477 20.7959 17.0383 20.6837 16.8568C20.5715 16.6752 20.4106 16.5288 20.2193 16.4342C19.7635 16.2087 19.3732 15.87 19.086 15.4503C18.7988 15.0307 18.6243 14.5443 18.5791 14.0378L18.3624 11.6762C18.8994 11.8336 19.456 11.9142 20.0156 11.9156L20.1954 13.8894C20.2173 14.1189 20.2969 14.3391 20.4269 14.5294C20.5568 14.7198 20.7329 14.8742 20.9386 14.9782C21.4009 15.2068 21.7899 15.5604 22.0615 15.9989C22.333 16.4374 22.4762 16.9432 22.4748 17.459V17.8728C22.4742 18.5191 22.2172 19.1388 21.7602 19.5958C21.3032 20.0528 20.6836 20.3098 20.0373 20.3103H15.9791V20.8542C15.9791 21.6443 15.6652 22.4021 15.1065 22.9608C14.5478 23.5195 13.7901 23.8333 12.9999 23.8333C12.2098 23.8333 11.4521 23.5195 10.8934 22.9608C10.3347 22.4021 10.0208 21.6443 10.0208 20.8542ZM11.6458 20.8542C11.6458 21.2133 11.7884 21.5578 12.0424 21.8117C12.2964 22.0657 12.6408 22.2083 12.9999 22.2083C13.3591 22.2083 13.7035 22.0657 13.9575 21.8117C14.2114 21.5578 14.3541 21.2133 14.3541 20.8542V20.3125H11.6458V20.8542ZM19.8217 9.7435C19.2314 9.70945 18.6574 9.53727 18.1458 9.24083L18.0981 8.72083C17.9824 7.37994 17.3405 6.13939 16.3128 5.27041C16.4161 4.71594 16.6419 4.19151 16.9736 3.73533C17.7485 4.29992 18.394 5.02334 18.867 5.85729C19.3401 6.69124 19.6297 7.61652 19.7166 8.57133L19.8249 9.74241L19.8217 9.7435Z" fill="#6C7278"/>
<path d="M20.0417 9.75C19.2917 9.75 18.5587 9.52762 17.9351 9.11099C17.3116 8.69435 16.8256 8.10218 16.5386 7.40934C16.2516 6.7165 16.1766 5.95413 16.3229 5.21862C16.4692 4.4831 16.8303 3.80749 17.3606 3.27722C17.8908 2.74695 18.5664 2.38582 19.302 2.23952C20.0375 2.09322 20.7998 2.16831 21.4927 2.45529C22.1855 2.74227 22.7777 3.22826 23.1943 3.8518C23.611 4.47533 23.8333 5.20841 23.8333 5.95833C23.8333 6.96395 23.4339 7.92837 22.7228 8.63945C22.0117 9.35052 21.0473 9.75 20.0417 9.75Z" fill="#CD2222"/>
</g>
<defs>
<clipPath id="clip0_3_69">
<rect width="26" height="26" fill="white"/>
</clipPath>
</defs>
</svg>
