<svg width="18" height="18" viewBox="0 0 18 18" fill="none" xmlns="http://www.w3.org/2000/svg">
<path d="M11.6248 4.1255L13.7461 6.24683M9.75 15.75H15.75M2.25 15.7503L2.28559 15.5012C2.41152 14.6197 2.47449 14.1789 2.61772 13.7674C2.74481 13.4023 2.91843 13.055 3.13429 12.7343C3.37756 12.3728 3.69239 12.0579 4.32206 11.4283L13.058 2.69227C13.6438 2.10649 14.5936 2.10648 15.1794 2.69227C15.7652 3.27806 15.7652 4.2278 15.1794 4.81359L6.28308 13.7099C5.71184 14.2811 5.42623 14.5667 5.1009 14.7939C4.81213 14.9955 4.5007 15.1625 4.17299 15.2915C3.80378 15.4368 3.40781 15.5167 2.61595 15.6765L2.25 15.7503Z" stroke="white" stroke-width="1.33" stroke-linecap="round" stroke-linejoin="round"/>
</svg>
